<svg xmlns="http://www.w3.org/2000/svg" xmlns:xlink="http://www.w3.org/1999/xlink" width="500" zoomAndPan="magnify" viewBox="0 0 375 374.999991" height="500" preserveAspectRatio="xMidYMid meet" version="1.0"><defs><clipPath id="35515c89b6"><path d="M 347 241 L 362.511719 241 L 362.511719 297 L 347 297 Z M 347 241 " clip-rule="nonzero"/></clipPath><clipPath id="209fc9cd92"><path d="M 75 94.449219 L 207 94.449219 L 207 135 L 75 135 Z M 75 94.449219 " clip-rule="nonzero"/></clipPath><clipPath id="d249444b23"><path d="M 19.011719 200 L 263 200 L 263 308.199219 L 19.011719 308.199219 Z M 19.011719 200 " clip-rule="nonzero"/></clipPath><clipPath id="c43996c7e5"><path d="M 19.011719 240 L 87 240 L 87 308.199219 L 19.011719 308.199219 Z M 19.011719 240 " clip-rule="nonzero"/></clipPath><clipPath id="fb6c475c58"><path d="M 19.011719 143 L 263 143 L 263 193 L 19.011719 193 Z M 19.011719 143 " clip-rule="nonzero"/></clipPath><clipPath id="b243a9965e"><path d="M 224 247 L 332 247 L 332 308.199219 L 224 308.199219 Z M 224 247 " clip-rule="nonzero"/></clipPath></defs><g clip-path="url(#35515c89b6)"><path fill="#000000" d="M 355.207031 296.550781 C 351.164062 296.550781 347.898438 293.277344 347.898438 289.230469 L 347.898438 245.09375 L 362.503906 241.371094 L 362.503906 289.238281 C 362.511719 293.277344 359.234375 296.550781 355.207031 296.550781 Z M 355.207031 296.550781 " fill-opacity="1" fill-rule="evenodd"/></g><g clip-path="url(#209fc9cd92)"><path fill="#000000" d="M 191.761719 134.035156 L 191.761719 120.652344 C 191.761719 114.167969 186.316406 109.125 179.929688 109.125 L 101.546875 109.125 C 95.160156 109.125 89.703125 114.167969 89.703125 120.652344 L 89.703125 134.027344 L 82.472656 134.027344 C 82.449219 134.027344 82.40625 134.027344 82.386719 134.027344 C 82.363281 134.027344 82.351562 134.027344 82.332031 134.027344 L 75.097656 134.027344 L 75.097656 120.652344 C 75.097656 106.097656 87.089844 94.496094 101.546875 94.496094 L 179.929688 94.496094 C 194.375 94.496094 206.367188 106.109375 206.367188 120.652344 L 206.367188 134.027344 Z M 191.761719 134.035156 " fill-opacity="1" fill-rule="evenodd"/></g><path fill="#000000" d="M 128.847656 175.390625 L 154.03125 175.390625 L 154.03125 217.972656 L 128.847656 217.972656 Z M 128.847656 175.390625 " fill-opacity="1" fill-rule="evenodd"/><g clip-path="url(#d249444b23)"><path fill="#000000" d="M 120.308594 200.957031 L 19.011719 200.957031 L 19.011719 228.328125 L 19.121094 228.4375 L 98.707031 308.152344 L 237.835938 308.152344 C 224.894531 301.667969 215.871094 291.398438 215.871094 276.972656 L 215.871094 245.75 L 176.617188 235.734375 C 174.722656 235.25 173.402344 233.546875 173.414062 231.589844 C 173.414062 229.636719 174.742188 227.929688 176.628906 227.460938 L 262.460938 205.671875 L 262.460938 200.96875 L 162.570312 200.96875 L 162.570312 222.253906 C 162.570312 224.613281 160.664062 226.527344 158.304688 226.527344 L 124.582031 226.527344 C 122.214844 226.527344 120.320312 224.613281 120.320312 222.253906 Z M 120.308594 200.957031 " fill-opacity="1" fill-rule="evenodd"/></g><g clip-path="url(#c43996c7e5)"><path fill="#000000" d="M 86.652344 308.152344 L 19.011719 240.402344 L 19.011719 291.878906 C 19.011719 300.855469 26.300781 308.152344 35.257812 308.152344 C 35.257812 308.152344 86.652344 308.152344 86.652344 308.152344 Z M 86.652344 308.152344 " fill-opacity="1" fill-rule="evenodd"/></g><g clip-path="url(#fb6c475c58)"><path fill="#000000" d="M 199.058594 143.78125 L 82.472656 143.78125 C 82.449219 143.78125 82.429688 143.78125 82.40625 143.78125 C 82.386719 143.78125 82.363281 143.78125 82.34375 143.78125 L 35.28125 143.78125 C 26.320312 143.78125 19.035156 151.082031 19.035156 160.054688 L 19.035156 192.414062 L 120.328125 192.414062 L 120.328125 171.132812 C 120.328125 168.769531 122.226562 166.859375 124.59375 166.859375 L 158.316406 166.859375 C 160.675781 166.859375 162.582031 168.769531 162.582031 171.132812 L 162.582031 192.414062 L 262.460938 192.414062 L 262.460938 160.054688 C 262.460938 151.082031 255.175781 143.78125 246.214844 143.78125 Z M 199.058594 143.78125 " fill-opacity="1" fill-rule="evenodd"/></g><g clip-path="url(#b243a9965e)"><path fill="#000000" d="M 224.398438 247.917969 L 224.398438 276.972656 C 224.398438 291.707031 238.425781 301.390625 256.246094 305.652344 C 256.707031 305.671875 257.179688 305.789062 257.605469 305.960938 C 264.15625 307.421875 271.183594 308.152344 278.191406 308.152344 C 304.925781 308.152344 331.984375 297.441406 331.984375 276.972656 L 331.984375 247.917969 L 279.242188 261.375 C 278.898438 261.460938 278.546875 261.515625 278.191406 261.515625 C 277.839844 261.515625 277.496094 261.472656 277.140625 261.386719 Z M 224.398438 247.917969 " fill-opacity="1" fill-rule="evenodd"/></g><path fill="#000000" d="M 267.667969 213.140625 L 194.984375 231.601562 L 221.152344 238.277344 L 221.238281 238.289062 L 278.191406 252.820312 L 335.167969 238.277344 L 335.210938 238.277344 L 361.398438 231.601562 L 278.191406 210.46875 L 267.851562 213.097656 Z M 267.667969 213.140625 " fill-opacity="1" fill-rule="evenodd"/></svg>