<svg xmlns="http://www.w3.org/2000/svg" xmlns:xlink="http://www.w3.org/1999/xlink" width="500" zoomAndPan="magnify" viewBox="0 0 375 374.999991" height="500" preserveAspectRatio="xMidYMid meet" version="1.0"><defs><g/><clipPath id="81a2252d82"><path d="M 27.023438 244.042969 L 168.773438 244.042969 L 168.773438 250.042969 L 27.023438 250.042969 Z M 27.023438 244.042969 " clip-rule="nonzero"/></clipPath><clipPath id="32eff831d5"><path d="M 27.023438 174.332031 L 168.773438 174.332031 L 168.773438 180.332031 L 27.023438 180.332031 Z M 27.023438 174.332031 " clip-rule="nonzero"/></clipPath><clipPath id="5ba83c7549"><path d="M 200.34375 174.332031 L 353.34375 174.332031 L 353.34375 181 L 200.34375 181 Z M 200.34375 174.332031 " clip-rule="nonzero"/></clipPath><clipPath id="9ddb0338c9"><path d="M 199.59375 243.714844 L 353.34375 243.714844 L 353.34375 250.464844 L 199.59375 250.464844 Z M 199.59375 243.714844 " clip-rule="nonzero"/></clipPath><clipPath id="2d5e2bdf81"><path d="M 161.105469 119.832031 L 208.355469 119.832031 L 208.355469 177 L 161.105469 177 Z M 161.105469 119.832031 " clip-rule="nonzero"/></clipPath><clipPath id="c6a1b56943"><path d="M 171 121 L 208.355469 121 L 208.355469 177 L 171 177 Z M 171 121 " clip-rule="nonzero"/></clipPath><clipPath id="8cb71a2fbf"><path d="M 179 181 L 190 181 L 190 191.832031 L 179 191.832031 Z M 179 181 " clip-rule="nonzero"/></clipPath><clipPath id="58c5e9d482"><path d="M 175 173 L 197 173 L 197 191.832031 L 175 191.832031 Z M 175 173 " clip-rule="nonzero"/></clipPath></defs><g fill="#333333" fill-opacity="1"><g transform="translate(22.939456, 236.699984)"><g><path d="M 6.046875 -50.40625 L 44.0625 -50.40625 L 44.0625 -40.53125 L 17.0625 -40.53125 L 17.0625 -30.3125 L 40.828125 -30.3125 L 40.828125 -20.453125 L 17.0625 -20.453125 L 17.0625 -9.859375 L 44.421875 -9.859375 L 44.421875 0 L 6.046875 0 Z M 6.046875 -50.40625 "/></g></g></g><g fill="#333333" fill-opacity="1"><g transform="translate(71.179436, 236.699984)"><g><path d="M 6.046875 -50.40625 L 16.265625 -50.40625 L 39.890625 -19.375 L 39.890625 -50.40625 L 50.828125 -50.40625 L 50.828125 0 L 41.40625 0 L 16.984375 -32.046875 L 16.984375 0 L 6.046875 0 Z M 6.046875 -50.40625 "/></g></g></g><g fill="#333333" fill-opacity="1"><g transform="translate(128.059407, 236.699984)"><g><path d="M 6.046875 -50.40625 L 17.140625 -50.40625 L 17.140625 -10.078125 L 42.265625 -10.078125 L 42.265625 0 L 6.046875 0 Z M 6.046875 -50.40625 "/></g></g></g><g fill="#333333" fill-opacity="1"><g transform="translate(172.627377, 236.699984)"><g/></g></g><g fill="#333333" fill-opacity="1"><g transform="translate(194.227367, 236.699984)"><g><path d="M 30.3125 0.859375 C 26.375 0.859375 22.785156 0.210938 19.546875 -1.078125 C 16.304688 -2.378906 13.519531 -4.179688 11.1875 -6.484375 C 8.863281 -8.785156 7.050781 -11.519531 5.75 -14.6875 C 4.457031 -17.851562 3.8125 -21.3125 3.8125 -25.0625 L 3.8125 -25.203125 C 3.8125 -28.796875 4.472656 -32.164062 5.796875 -35.3125 C 7.117188 -38.457031 8.953125 -41.21875 11.296875 -43.59375 C 13.648438 -45.96875 16.4375 -47.835938 19.65625 -49.203125 C 22.875 -50.578125 26.398438 -51.265625 30.234375 -51.265625 C 32.492188 -51.265625 34.546875 -51.109375 36.390625 -50.796875 C 38.242188 -50.484375 39.960938 -50.035156 41.546875 -49.453125 C 43.128906 -48.878906 44.613281 -48.160156 46 -47.296875 C 47.394531 -46.441406 48.742188 -45.460938 50.046875 -44.359375 L 43.0625 -35.921875 C 42.09375 -36.742188 41.128906 -37.46875 40.171875 -38.09375 C 39.210938 -38.71875 38.21875 -39.242188 37.1875 -39.671875 C 36.15625 -40.097656 35.039062 -40.429688 33.84375 -40.671875 C 32.644531 -40.921875 31.320312 -41.046875 29.875 -41.046875 C 27.863281 -41.046875 25.976562 -40.625 24.21875 -39.78125 C 22.46875 -38.9375 20.929688 -37.804688 19.609375 -36.390625 C 18.296875 -34.972656 17.265625 -33.316406 16.515625 -31.421875 C 15.773438 -29.523438 15.40625 -27.5 15.40625 -25.34375 L 15.40625 -25.203125 C 15.40625 -22.898438 15.773438 -20.773438 16.515625 -18.828125 C 17.265625 -16.878906 18.320312 -15.1875 19.6875 -13.75 C 21.0625 -12.3125 22.671875 -11.195312 24.515625 -10.40625 C 26.359375 -9.613281 28.410156 -9.21875 30.671875 -9.21875 C 34.796875 -9.21875 38.273438 -10.222656 41.109375 -12.234375 L 41.109375 -19.4375 L 29.953125 -19.4375 L 29.953125 -29.015625 L 51.84375 -29.015625 L 51.84375 -7.125 C 49.25 -4.914062 46.160156 -3.03125 42.578125 -1.46875 C 39.003906 0.0820312 34.914062 0.859375 30.3125 0.859375 Z M 30.3125 0.859375 "/></g></g></g><g fill="#333333" fill-opacity="1"><g transform="translate(250.675335, 236.699984)"><g><path d="M 6.046875 -50.40625 L 17.140625 -50.40625 L 17.140625 -30.453125 L 37.578125 -30.453125 L 37.578125 -50.40625 L 48.671875 -50.40625 L 48.671875 0 L 37.578125 0 L 37.578125 -20.234375 L 17.140625 -20.234375 L 17.140625 0 L 6.046875 0 Z M 6.046875 -50.40625 "/></g></g></g><g fill="#333333" fill-opacity="1"><g transform="translate(305.395302, 236.699984)"><g><path d="M 17.78125 -40.171875 L 2.453125 -40.171875 L 2.453125 -50.40625 L 44.203125 -50.40625 L 44.203125 -40.171875 L 28.875 -40.171875 L 28.875 0 L 17.78125 0 Z M 17.78125 -40.171875 "/></g></g></g><g clip-path="url(#81a2252d82)"><path fill="#333333" d="M 168.773438 244.058594 L 27.140625 244.058594 L 27.140625 250.214844 L 168.773438 250.214844 Z M 168.773438 244.058594 " fill-opacity="1" fill-rule="nonzero"/></g><g clip-path="url(#32eff831d5)"><path fill="#333333" d="M 168.773438 174.347656 L 27.140625 174.347656 L 27.140625 180.503906 L 168.773438 180.503906 Z M 168.773438 174.347656 " fill-opacity="1" fill-rule="nonzero"/></g><g clip-path="url(#5ba83c7549)"><path fill="#333333" d="M 353.34375 174.347656 L 200.460938 174.347656 L 200.460938 180.992188 L 353.34375 180.992188 Z M 353.34375 174.347656 " fill-opacity="1" fill-rule="nonzero"/></g><g clip-path="url(#9ddb0338c9)"><path fill="#333333" d="M 353.34375 243.734375 L 199.652344 243.734375 L 199.652344 250.414062 L 353.34375 250.414062 Z M 353.34375 243.734375 " fill-opacity="1" fill-rule="nonzero"/></g><g fill="#1c4732" fill-opacity="1"><g transform="translate(168.783685, 250.85414)"><g><path d="M 11.53125 -76.1875 L 20.140625 -76.1875 L 20.140625 0 L 11.53125 0 Z M 11.53125 -76.1875 "/></g></g></g><g clip-path="url(#2d5e2bdf81)"><path fill="#e0efdf" d="M 208.316406 143.421875 C 208.316406 149.597656 205.933594 155.214844 202.039062 159.414062 C 197.691406 164.097656 195.347656 170.289062 195.347656 176.667969 L 195.347656 176.875 L 174.097656 176.875 L 174.097656 176.5 C 174.097656 172.828125 173.28125 169.25 171.765625 165.976562 C 170.648438 163.566406 169.152344 161.316406 167.320312 159.320312 C 163.476562 155.132812 161.132812 149.554688 161.128906 143.425781 C 161.128906 130.507812 171.445312 120.058594 184.390625 119.878906 C 187.597656 119.835938 190.660156 120.429688 193.457031 121.542969 C 202.164062 125.007812 208.316406 133.5 208.316406 143.421875 Z M 208.316406 143.421875 " fill-opacity="1" fill-rule="nonzero"/></g><g clip-path="url(#c6a1b56943)"><path fill="#c9e0c8" d="M 208.316406 143.421875 C 208.316406 149.597656 205.933594 155.214844 202.039062 159.414062 C 197.691406 164.097656 195.347656 170.289062 195.347656 176.667969 L 195.347656 176.875 L 174.097656 176.875 L 174.097656 176.5 C 174.097656 172.828125 173.28125 169.25 171.765625 165.976562 C 172.40625 165.8125 173.042969 165.644531 173.664062 165.46875 C 184.417969 162.363281 193.226562 153.28125 195.988281 142.457031 C 198.074219 134.292969 195.941406 128.398438 193.457031 121.542969 C 202.164062 125.007812 208.316406 133.5 208.316406 143.421875 Z M 208.316406 143.421875 " fill-opacity="1" fill-rule="nonzero"/></g><path fill="#f3f9f2" d="M 164.988281 139.441406 C 164.886719 139.441406 164.785156 139.429688 164.683594 139.402344 C 164.046875 139.234375 163.667969 138.585938 163.835938 137.949219 C 164.671875 134.777344 166.351562 131.742188 168.6875 129.171875 C 170.792969 126.855469 174.867188 123.980469 178.28125 123.207031 C 178.921875 123.0625 179.5625 123.464844 179.707031 124.105469 C 179.851562 124.746094 179.449219 125.382812 178.808594 125.527344 C 175.976562 126.167969 172.335938 128.695312 170.453125 130.769531 C 168.371094 133.058594 166.882812 135.75 166.140625 138.554688 C 166 139.085938 165.515625 139.441406 164.988281 139.441406 Z M 164.988281 139.441406 " fill-opacity="1" fill-rule="nonzero"/><path fill="#accc83" d="M 196.359375 156.1875 C 193.535156 158.339844 190.246094 158.9375 187.976562 157.335938 C 185.742188 155.757812 185.753906 151.953125 189.132812 149.070312 C 192.652344 145.988281 199.121094 145.578125 202.09375 146.027344 C 203.054688 146.132812 203.554688 146.929688 203.136719 147.589844 C 201.742188 149.71875 199.1875 153.941406 196.359375 156.1875 Z M 196.359375 156.1875 " fill-opacity="1" fill-rule="nonzero"/><path fill="#95b568" d="M 196.664062 154.609375 C 193.507812 156.738281 189.953125 157.171875 187.628906 155.316406 C 187.089844 154.890625 186.695312 154.339844 186.449219 153.710938 C 186.308594 155.210938 186.863281 156.550781 187.976562 157.335938 C 190.246094 158.941406 193.535156 158.34375 196.359375 156.1875 C 199.085938 154.023438 201.550781 150.027344 202.976562 147.835938 C 201.300781 150.085938 199.03125 152.941406 196.664062 154.609375 Z M 196.664062 154.609375 " fill-opacity="1" fill-rule="nonzero"/><path fill="#accc83" d="M 193.039062 143.355469 C 191.5 145.753906 189.832031 147.417969 187.761719 147.714844 C 186.726562 147.851562 185.667969 147.523438 184.820312 146.726562 C 183.988281 145.925781 183.367188 144.652344 183.664062 142.839844 C 183.921875 140.964844 185.515625 138.816406 187.703125 137.296875 C 189.863281 135.742188 192.613281 134.816406 194.464844 134.589844 C 196.433594 134.347656 196.398438 135.738281 195.839844 137.179688 C 195.023438 139.269531 194.253906 141.460938 193.039062 143.355469 Z M 193.039062 143.355469 " fill-opacity="1" fill-rule="nonzero"/><path fill="#95b568" d="M 193.582031 141.65625 C 191.679688 144.109375 189.710938 145.75 187.4375 145.871094 C 186.304688 145.921875 185.1875 145.464844 184.347656 144.519531 C 184.050781 144.179688 183.792969 143.777344 183.605469 143.3125 C 183.480469 144.875 184.0625 146 184.820312 146.726562 C 185.667969 147.527344 186.726562 147.851562 187.761719 147.714844 C 189.832031 147.417969 191.5 145.753906 193.039062 143.355469 C 193.726562 142.285156 194.273438 141.117188 194.761719 139.929688 C 194.398438 140.527344 194.007812 141.105469 193.582031 141.65625 Z M 193.582031 141.65625 " fill-opacity="1" fill-rule="nonzero"/><path fill="#accc83" d="M 174.324219 158.410156 C 177.074219 160.246094 180.164062 160.609375 182.175781 158.988281 C 184.160156 157.390625 183.921875 153.855469 180.617188 151.378906 C 177.167969 148.722656 171.136719 148.71875 168.402344 149.3125 C 167.515625 149.464844 167.097656 150.234375 167.523438 150.824219 C 168.945312 152.71875 171.5625 156.488281 174.324219 158.410156 Z M 174.324219 158.410156 " fill-opacity="1" fill-rule="nonzero"/><path fill="#95b568" d="M 182.828125 153.894531 C 183 155.304688 182.53125 156.589844 181.519531 157.40625 C 179.371094 159.132812 176.078125 158.746094 173.144531 156.789062 C 171.480469 155.632812 169.863281 153.84375 168.5 152.144531 C 169.988281 154.140625 172.109375 156.871094 174.324219 158.410156 C 177.074219 160.246094 180.160156 160.609375 182.175781 158.988281 C 183.546875 157.886719 183.855469 155.859375 182.828125 153.894531 Z M 182.828125 153.894531 " fill-opacity="1" fill-rule="nonzero"/><path fill="#4b7043" d="M 200.066406 148.066406 C 197.742188 148.417969 195.46875 149.148438 193.371094 150.246094 C 191.28125 151.347656 189.367188 152.824219 187.816406 154.644531 C 187.042969 155.550781 186.363281 156.542969 185.796875 157.601562 C 185.421875 158.300781 185.101562 159.03125 184.835938 159.777344 C 184.777344 158.3125 184.773438 156.84375 184.832031 155.378906 C 184.882812 154.347656 184.949219 153.316406 185.074219 152.289062 C 185.195312 151.261719 185.347656 150.238281 185.558594 149.226562 C 185.980469 147.207031 186.605469 145.21875 187.539062 143.375 L 187.808594 142.859375 L 187.90625 142.691406 L 188.097656 142.351562 L 188.402344 141.859375 L 188.511719 141.695312 C 188.582031 141.589844 188.652344 141.480469 188.726562 141.375 C 188.875 141.164062 189.027344 140.953125 189.1875 140.75 C 189.503906 140.34375 189.839844 139.949219 190.203125 139.578125 C 190.566406 139.207031 190.949219 138.859375 191.351562 138.53125 C 191.371094 138.515625 191.375 138.492188 191.359375 138.46875 C 191.347656 138.449219 191.316406 138.445312 191.296875 138.460938 C 190.882812 138.777344 190.484375 139.121094 190.109375 139.480469 C 189.730469 139.847656 189.378906 140.234375 189.046875 140.636719 C 188.875 140.839844 188.71875 141.050781 188.5625 141.257812 C 188.484375 141.363281 188.410156 141.472656 188.332031 141.574219 L 188.21875 141.738281 L 188.113281 141.902344 L 187.894531 142.230469 L 187.589844 142.734375 L 187.492188 142.90625 L 187.300781 143.25 C 186.300781 145.09375 185.613281 147.09375 185.125 149.128906 C 184.878906 150.148438 184.699219 151.183594 184.546875 152.21875 C 184.390625 153.253906 184.292969 154.296875 184.214844 155.339844 C 184.074219 157.367188 184.058594 159.398438 184.128906 161.425781 C 183.984375 160.972656 183.824219 160.523438 183.644531 160.082031 C 183.027344 158.539062 182.167969 157.070312 181.035156 155.84375 C 180.46875 155.234375 179.835938 154.679688 179.15625 154.207031 C 178.476562 153.730469 177.746094 153.335938 176.988281 153.007812 C 176.230469 152.679688 175.445312 152.421875 174.652344 152.226562 C 173.855469 152.035156 173.046875 151.898438 172.234375 151.800781 C 172.207031 151.800781 172.179688 151.820312 172.175781 151.847656 C 172.167969 151.878906 172.1875 151.910156 172.222656 151.914062 C 173.023438 152.046875 173.816406 152.21875 174.59375 152.445312 C 175.367188 152.679688 176.121094 152.96875 176.84375 153.320312 C 177.566406 153.671875 178.253906 154.089844 178.886719 154.578125 C 179.519531 155.0625 180.09375 155.617188 180.605469 156.222656 C 181.625 157.441406 182.371094 158.863281 182.890625 160.363281 C 183.386719 161.804688 183.667969 163.171875 183.707031 164.691406 C 183.730469 165.527344 183.742188 166.367188 183.757812 167.207031 C 183.792969 169.414062 183.816406 171.617188 183.835938 173.824219 C 183.851562 175.765625 183.867188 177.707031 183.882812 179.648438 C 183.886719 180.226562 183.886719 180.804688 183.894531 181.382812 C 183.90625 182.238281 183.980469 183.097656 184.109375 183.945312 C 184.109375 183.953125 184.113281 183.960938 184.113281 183.96875 C 184.1875 184.359375 184.628906 184.59375 185.015625 184.382812 C 185.246094 184.261719 185.726562 183.996094 185.675781 183.734375 C 185.464844 182.625 185.351562 181.496094 185.363281 180.363281 C 185.371094 179.113281 185.382812 177.859375 185.394531 176.605469 C 185.417969 174.292969 185.324219 171.980469 185.359375 169.664062 C 185.394531 167.542969 185.183594 165.417969 185.257812 163.292969 C 185.289062 162.386719 185.292969 161.453125 185.539062 160.578125 C 185.789062 159.679688 186.117188 158.804688 186.523438 157.96875 C 187.023438 156.945312 187.636719 155.972656 188.347656 155.074219 C 189.765625 153.269531 191.566406 151.757812 193.574219 150.605469 C 195.582031 149.449219 197.800781 148.640625 200.09375 148.207031 C 200.128906 148.199219 200.15625 148.160156 200.148438 148.125 C 200.144531 148.085938 200.105469 148.058594 200.066406 148.066406 Z M 200.066406 148.066406 " fill-opacity="1" fill-rule="nonzero"/><g clip-path="url(#8cb71a2fbf)"><path fill="#404443" d="M 189.789062 186.789062 C 189.789062 187.25 189.730469 187.695312 189.613281 188.117188 C 189.027344 190.257812 187.070312 191.828125 184.742188 191.828125 C 182.414062 191.828125 180.457031 190.257812 179.871094 188.117188 C 179.757812 187.695312 179.695312 187.25 179.695312 186.789062 C 179.695312 186.261719 179.777344 185.746094 179.929688 185.265625 C 180.578125 183.230469 182.488281 181.753906 184.742188 181.753906 C 185.074219 181.753906 185.402344 181.785156 185.71875 181.847656 C 188.039062 182.300781 189.789062 184.339844 189.789062 186.789062 Z M 189.789062 186.789062 " fill-opacity="1" fill-rule="nonzero"/></g><path fill="#404443" d="M 195.417969 175.300781 L 195.417969 179.988281 C 195.417969 183.753906 192.992188 186.953125 189.613281 188.117188 C 188.730469 188.421875 187.785156 188.585938 186.800781 188.585938 L 182.6875 188.585938 C 181.703125 188.585938 180.753906 188.421875 179.871094 188.117188 C 178.6875 187.710938 177.617188 187.050781 176.730469 186.203125 C 176.148438 185.648438 175.644531 185.011719 175.234375 184.308594 C 174.492188 183.039062 174.070312 181.5625 174.070312 179.988281 L 174.070312 175.300781 Z M 195.417969 175.300781 " fill-opacity="1" fill-rule="nonzero"/><path fill="#303534" d="M 196.804688 174.742188 L 196.804688 175.113281 C 196.804688 175.691406 196.332031 176.160156 195.753906 176.160156 L 173.734375 176.160156 C 173.15625 176.160156 172.683594 175.691406 172.683594 175.113281 L 172.683594 174.742188 C 172.683594 174.160156 173.15625 173.695312 173.734375 173.695312 L 195.753906 173.695312 C 196.332031 173.695312 196.804688 174.160156 196.804688 174.742188 Z M 196.804688 174.742188 " fill-opacity="1" fill-rule="nonzero"/><g clip-path="url(#58c5e9d482)"><path fill="#303534" d="M 196.804688 174.742188 L 196.804688 175.113281 C 196.804688 175.691406 196.332031 176.160156 195.753906 176.160156 L 195.417969 176.160156 L 195.417969 179.988281 C 195.417969 183.753906 192.988281 186.953125 189.609375 188.117188 C 189.027344 190.257812 187.070312 191.828125 184.742188 191.828125 C 182.414062 191.828125 180.453125 190.257812 179.871094 188.117188 C 178.6875 187.710938 177.617188 187.050781 176.730469 186.203125 C 176.148438 185.648438 175.644531 185.011719 175.234375 184.308594 C 176.453125 184.011719 177.636719 183.597656 178.777344 183.074219 C 182.082031 181.558594 184.976562 179.148438 187.042969 176.160156 C 187.121094 176.050781 187.195312 175.941406 187.265625 175.832031 C 187.375 175.667969 187.480469 175.488281 187.578125 175.300781 C 187.835938 174.804688 188.070312 174.242188 188.320312 173.695312 L 195.75 173.695312 C 196.332031 173.695312 196.804688 174.160156 196.804688 174.742188 Z M 196.804688 174.742188 " fill-opacity="1" fill-rule="nonzero"/></g></svg>