<svg xmlns="http://www.w3.org/2000/svg" xmlns:xlink="http://www.w3.org/1999/xlink" width="500" zoomAndPan="magnify" viewBox="0 0 375 374.999991" height="500" preserveAspectRatio="xMidYMid meet" version="1.0"><defs><g/><clipPath id="77f2573633"><path d="M 183 191.285156 L 195 191.285156 L 195 203 L 183 203 Z M 183 191.285156 " clip-rule="nonzero"/></clipPath><clipPath id="36f8b6052a"><path d="M 268.566406 216.410156 L 291.703125 216.410156 L 291.703125 240.785156 L 268.566406 240.785156 Z M 268.566406 216.410156 " clip-rule="nonzero"/></clipPath><clipPath id="3b66c2e8cb"><path d="M 268.566406 220.730469 L 287.726562 220.730469 L 287.726562 240.785156 L 268.566406 240.785156 Z M 268.566406 220.730469 " clip-rule="nonzero"/></clipPath></defs><path fill="#537430" d="M 159.210938 234.140625 C 159.210938 234.140625 160.007812 233.03125 161.039062 231.851562 C 162.0625 230.640625 163.304688 229.453125 163.902344 228.316406 C 165.0625 226.027344 165.78125 224.253906 164.226562 222.535156 C 163.449219 221.722656 162.449219 221.527344 161.34375 222.023438 C 160.246094 222.507812 159.066406 223.683594 158.199219 225.394531 C 157.292969 227.113281 157.359375 229.5625 157.882812 231.292969 C 158.136719 232.171875 158.472656 232.890625 158.742188 233.378906 C 159.023438 233.871094 159.210938 234.140625 159.210938 234.140625 " fill-opacity="1" fill-rule="nonzero"/><path fill="#537430" d="M 146.933594 215.496094 C 146.933594 215.496094 148.296875 215.523438 149.859375 215.402344 C 151.445312 215.304688 153.140625 215.023438 154.410156 215.226562 C 156.933594 215.667969 158.785156 216.152344 159.230469 218.425781 C 159.417969 219.539062 158.972656 220.453125 157.917969 221.042969 C 156.871094 221.628906 155.222656 221.871094 153.332031 221.542969 C 151.414062 221.242188 149.492188 219.722656 148.417969 218.265625 C 147.867188 217.535156 147.492188 216.835938 147.261719 216.328125 C 147.039062 215.808594 146.933594 215.496094 146.933594 215.496094 " fill-opacity="1" fill-rule="nonzero"/><path fill="#a5bf1e" d="M 142.25 232.9375 C 142.25 232.9375 143.429688 231.589844 144.625 229.917969 C 145.863281 228.246094 147.011719 226.300781 148.285156 225.195312 C 150.863281 223.03125 152.90625 221.582031 155.570312 223.054688 C 156.84375 223.804688 157.390625 225.019531 157.089844 226.578125 C 156.796875 228.125 155.652344 229.984375 153.726562 231.609375 C 151.804688 233.28125 148.65625 233.929688 146.285156 233.777344 C 145.089844 233.722656 144.070312 233.503906 143.363281 233.308594 C 142.652344 233.097656 142.25 232.9375 142.25 232.9375 " fill-opacity="1" fill-rule="nonzero"/><path fill="#537430" d="M 179.921875 193.253906 C 179.921875 193.253906 179.417969 194.34375 178.722656 195.53125 C 178.039062 196.746094 177.164062 197.980469 176.835938 199.058594 C 176.214844 201.226562 175.890625 202.875 177.515625 204.097656 C 178.320312 204.671875 179.214844 204.675781 180.085938 204.066406 C 180.953125 203.464844 181.777344 202.253906 182.242188 200.632812 C 182.742188 199.003906 182.277344 196.902344 181.539062 195.492188 C 181.175781 194.777344 180.765625 194.214844 180.453125 193.835938 C 180.128906 193.457031 179.921875 193.253906 179.921875 193.253906 " fill-opacity="1" fill-rule="nonzero"/><path fill="#537430" d="M 197.347656 213.519531 C 197.347656 213.519531 195.847656 213.007812 194.070312 212.589844 C 192.28125 212.140625 190.300781 211.851562 188.96875 211.179688 C 186.324219 209.800781 184.445312 208.613281 184.753906 205.933594 C 184.941406 204.636719 185.753906 203.777344 187.132812 203.5 C 188.5 203.21875 190.410156 203.527344 192.390625 204.5625 C 194.40625 205.574219 196.003906 207.933594 196.679688 209.929688 C 197.035156 210.929688 197.199219 211.835938 197.277344 212.480469 C 197.34375 213.136719 197.347656 213.519531 197.347656 213.519531 " fill-opacity="1" fill-rule="nonzero"/><g clip-path="url(#77f2573633)"><path fill="#a5bf1e" d="M 194.757812 191.484375 C 194.757812 191.484375 193.960938 192.84375 193.207031 194.484375 C 192.414062 196.132812 191.746094 198 190.828125 199.164062 C 188.964844 201.457031 187.441406 203.046875 184.898438 202.21875 C 183.675781 201.78125 183.003906 200.824219 183.003906 199.429688 C 183 198.046875 183.683594 196.25 185.074219 194.53125 C 186.457031 192.769531 189.0625 191.6875 191.132812 191.425781 C 192.175781 191.277344 193.09375 191.296875 193.734375 191.347656 C 194.382812 191.414062 194.757812 191.484375 194.757812 191.484375 " fill-opacity="1" fill-rule="nonzero"/></g><path fill="#5f2e15" d="M 273.949219 226.804688 C 271.292969 228.828125 218.46875 228.242188 211.890625 226.730469 C 211.554688 226.652344 208.757812 226.34375 208.414062 226.316406 C 207.636719 226.257812 206.863281 226.125 206.085938 226.027344 L 204.628906 225.832031 C 204.144531 225.753906 203.671875 225.628906 203.191406 225.53125 L 201.757812 225.21875 C 201.277344 225.117188 200.800781 225.015625 200.328125 224.875 C 199.378906 224.625 198.4375 224.332031 197.5 224.03125 C 195.144531 223.265625 192.820312 222.390625 190.53125 221.539062 C 190.164062 221.242188 189.6875 220.890625 189.066406 220.453125 C 188.21875 219.851562 187.09375 219.109375 185.78125 218.023438 C 185.128906 217.480469 184.449219 216.851562 183.824219 216.152344 C 183.203125 215.445312 182.632812 214.640625 182.15625 213.777344 C 181.695312 212.90625 181.324219 211.980469 181.132812 211.039062 C 180.941406 210.105469 180.894531 209.15625 181.03125 208.285156 C 181.292969 206.539062 182.238281 205.117188 183.101562 204.332031 C 183.964844 203.519531 184.703125 203.234375 184.648438 203.039062 C 184.628906 202.882812 183.742188 202.808594 182.496094 203.488281 C 181.273438 204.148438 179.808594 205.667969 179.195312 207.878906 C 178.886719 208.96875 178.816406 210.183594 178.953125 211.386719 C 179.09375 212.59375 179.464844 213.773438 179.964844 214.871094 C 180.476562 215.960938 181.121094 216.960938 181.839844 217.839844 C 182.160156 218.222656 182.488281 218.578125 182.820312 218.910156 C 182.28125 218.753906 181.746094 218.605469 181.210938 218.46875 C 179.46875 218.019531 177.761719 217.695312 176.125 217.5 C 174.488281 217.300781 172.925781 217.234375 171.464844 217.269531 C 170.007812 217.304688 168.65625 217.476562 167.441406 217.699219 C 165.011719 218.183594 163.171875 218.984375 162.003906 219.667969 C 161.414062 220 160.996094 220.320312 160.722656 220.554688 C 160.453125 220.785156 160.332031 220.9375 160.371094 221 C 160.40625 221.0625 160.605469 221.035156 160.9375 220.933594 C 161.269531 220.832031 161.738281 220.644531 162.359375 220.453125 C 163.585938 220.042969 165.386719 219.550781 167.675781 219.34375 C 168.824219 219.261719 170.082031 219.21875 171.4375 219.300781 C 172.796875 219.386719 174.246094 219.5625 175.757812 219.855469 C 178.789062 220.425781 182.035156 221.523438 185.457031 222.914062 C 188.878906 224.289062 192.46875 225.949219 196.34375 227.375 C 197.316406 227.726562 198.296875 228.070312 199.304688 228.378906 C 199.800781 228.546875 200.316406 228.675781 200.832031 228.804688 L 202.375 229.191406 C 202.890625 229.316406 203.402344 229.464844 203.925781 229.5625 L 205.5 229.828125 C 206.546875 229.992188 207.59375 230.207031 208.652344 230.261719 C 213.214844 231.265625 271.726562 231.996094 273.949219 230.042969 L 273.949219 226.804688 " fill-opacity="1" fill-rule="nonzero"/><g clip-path="url(#36f8b6052a)"><path fill="#537430" d="M 269.121094 240.785156 L 291.703125 228.265625 L 268.722656 216.492188 Z M 269.121094 240.785156 " fill-opacity="1" fill-rule="nonzero"/></g><g clip-path="url(#3b66c2e8cb)"><path fill="#a5bf1e" d="M 269.121094 240.785156 L 287.542969 230.570312 L 268.796875 220.96875 Z M 269.121094 240.785156 " fill-opacity="1" fill-rule="nonzero"/></g><g fill="#333333" fill-opacity="1"><g transform="translate(53.472658, 184.533679)"><g><path d="M 19.921875 0.59375 C 16.734375 0.59375 13.601562 0.046875 10.53125 -1.046875 C 7.457031 -2.140625 4.664062 -3.828125 2.15625 -6.109375 L 7.59375 -12.625 C 9.507812 -11.070312 11.472656 -9.832031 13.484375 -8.90625 C 15.503906 -7.988281 17.710938 -7.53125 20.109375 -7.53125 C 22.015625 -7.53125 23.492188 -7.878906 24.546875 -8.578125 C 25.609375 -9.273438 26.140625 -10.242188 26.140625 -11.484375 L 26.140625 -11.609375 C 26.140625 -12.203125 26.03125 -12.726562 25.8125 -13.1875 C 25.59375 -13.644531 25.171875 -14.070312 24.546875 -14.46875 C 23.929688 -14.875 23.078125 -15.273438 21.984375 -15.671875 C 20.890625 -16.066406 19.460938 -16.488281 17.703125 -16.9375 C 15.585938 -17.445312 13.671875 -18.019531 11.953125 -18.65625 C 10.242188 -19.300781 8.789062 -20.09375 7.59375 -21.03125 C 6.394531 -21.96875 5.46875 -23.132812 4.8125 -24.53125 C 4.15625 -25.925781 3.828125 -27.660156 3.828125 -29.734375 L 3.828125 -29.859375 C 3.828125 -31.765625 4.1875 -33.484375 4.90625 -35.015625 C 5.625 -36.554688 6.628906 -37.882812 7.921875 -39 C 9.222656 -40.125 10.769531 -40.984375 12.5625 -41.578125 C 14.351562 -42.179688 16.328125 -42.484375 18.484375 -42.484375 C 21.554688 -42.484375 24.378906 -42.019531 26.953125 -41.09375 C 29.523438 -40.175781 31.890625 -38.863281 34.046875 -37.15625 L 29.25 -30.21875 C 27.375 -31.488281 25.539062 -32.492188 23.75 -33.234375 C 21.957031 -33.972656 20.164062 -34.34375 18.375 -34.34375 C 16.570312 -34.34375 15.222656 -33.992188 14.328125 -33.296875 C 13.429688 -32.597656 12.984375 -31.726562 12.984375 -30.6875 L 12.984375 -30.578125 C 12.984375 -29.898438 13.113281 -29.3125 13.375 -28.8125 C 13.632812 -28.3125 14.101562 -27.859375 14.78125 -27.453125 C 15.457031 -27.054688 16.382812 -26.675781 17.5625 -26.3125 C 18.738281 -25.957031 20.222656 -25.539062 22.015625 -25.0625 C 24.128906 -24.507812 26.015625 -23.882812 27.671875 -23.1875 C 29.328125 -22.488281 30.722656 -21.648438 31.859375 -20.671875 C 32.992188 -19.691406 33.847656 -18.539062 34.421875 -17.21875 C 35.003906 -15.90625 35.296875 -14.332031 35.296875 -12.5 L 35.296875 -12.390625 C 35.296875 -10.304688 34.914062 -8.457031 34.15625 -6.84375 C 33.40625 -5.226562 32.347656 -3.875 30.984375 -2.78125 C 29.628906 -1.6875 28.015625 -0.847656 26.140625 -0.265625 C 24.265625 0.304688 22.191406 0.59375 19.921875 0.59375 Z M 19.921875 0.59375 "/></g></g></g><g fill="#333333" fill-opacity="1"><g transform="translate(91.760123, 184.533679)"><g><path d="M 4.25 -43.671875 L 13.8125 -43.671875 L 13.8125 -35.59375 L 4.25 -35.59375 Z M 4.484375 -32.0625 L 13.578125 -32.0625 L 13.578125 0 L 4.484375 0 Z M 4.484375 -32.0625 "/></g></g></g><g fill="#333333" fill-opacity="1"><g transform="translate(109.827024, 184.533679)"><g><path d="M 18.421875 9.6875 C 15.796875 9.6875 13.285156 9.394531 10.890625 8.8125 C 8.492188 8.238281 6.28125 7.414062 4.25 6.34375 L 7.359375 -0.484375 C 9.035156 0.429688 10.71875 1.148438 12.40625 1.671875 C 14.101562 2.191406 16.03125 2.453125 18.1875 2.453125 C 21.300781 2.453125 23.601562 1.710938 25.09375 0.234375 C 26.59375 -1.234375 27.34375 -3.40625 27.34375 -6.28125 L 27.34375 -7.84375 C 25.988281 -6.207031 24.507812 -4.925781 22.90625 -4 C 21.3125 -3.082031 19.300781 -2.625 16.875 -2.625 C 15 -2.625 13.203125 -2.953125 11.484375 -3.609375 C 9.773438 -4.273438 8.257812 -5.242188 6.9375 -6.515625 C 5.625 -7.796875 4.578125 -9.363281 3.796875 -11.21875 C 3.015625 -13.070312 2.625 -15.195312 2.625 -17.59375 L 2.625 -17.703125 C 2.625 -20.097656 3.023438 -22.222656 3.828125 -24.078125 C 4.628906 -25.929688 5.6875 -27.492188 7 -28.765625 C 8.3125 -30.046875 9.828125 -31.015625 11.546875 -31.671875 C 13.265625 -32.335938 15.039062 -32.671875 16.875 -32.671875 C 19.34375 -32.671875 21.375 -32.207031 22.96875 -31.28125 C 24.5625 -30.363281 25.976562 -29.226562 27.21875 -27.875 L 27.21875 -32.0625 L 36.3125 -32.0625 L 36.3125 -7.234375 C 36.3125 -1.535156 34.957031 2.671875 32.25 5.390625 C 30.726562 6.898438 28.820312 7.992188 26.53125 8.671875 C 24.238281 9.347656 21.535156 9.6875 18.421875 9.6875 Z M 19.5 -10.171875 C 20.613281 -10.171875 21.648438 -10.347656 22.609375 -10.703125 C 23.566406 -11.066406 24.394531 -11.578125 25.09375 -12.234375 C 25.789062 -12.890625 26.335938 -13.675781 26.734375 -14.59375 C 27.140625 -15.507812 27.34375 -16.507812 27.34375 -17.59375 L 27.34375 -17.703125 C 27.34375 -18.785156 27.140625 -19.785156 26.734375 -20.703125 C 26.335938 -21.617188 25.789062 -22.40625 25.09375 -23.0625 C 24.394531 -23.71875 23.566406 -24.222656 22.609375 -24.578125 C 21.648438 -24.941406 20.613281 -25.125 19.5 -25.125 C 18.382812 -25.125 17.359375 -24.941406 16.421875 -24.578125 C 15.484375 -24.222656 14.664062 -23.71875 13.96875 -23.0625 C 13.269531 -22.40625 12.71875 -21.617188 12.3125 -20.703125 C 11.914062 -19.785156 11.71875 -18.785156 11.71875 -17.703125 L 11.71875 -17.59375 C 11.71875 -15.351562 12.457031 -13.554688 13.9375 -12.203125 C 15.414062 -10.847656 17.269531 -10.171875 19.5 -10.171875 Z M 19.5 -10.171875 "/></g></g></g><g fill="#333333" fill-opacity="1"><g transform="translate(150.208335, 184.533679)"><g><path d="M 4.0625 -32.0625 L 13.15625 -32.0625 L 13.15625 -27.515625 C 13.675781 -28.191406 14.242188 -28.835938 14.859375 -29.453125 C 15.484375 -30.078125 16.171875 -30.628906 16.921875 -31.109375 C 17.679688 -31.585938 18.519531 -31.96875 19.4375 -32.25 C 20.351562 -32.53125 21.394531 -32.671875 22.5625 -32.671875 C 26.03125 -32.671875 28.707031 -31.613281 30.59375 -29.5 C 32.488281 -27.382812 33.4375 -24.472656 33.4375 -20.765625 L 33.4375 0 L 24.34375 0 L 24.34375 -17.890625 C 24.34375 -20.046875 23.863281 -21.671875 22.90625 -22.765625 C 21.957031 -23.859375 20.601562 -24.40625 18.84375 -24.40625 C 17.09375 -24.40625 15.707031 -23.859375 14.6875 -22.765625 C 13.664062 -21.671875 13.15625 -20.046875 13.15625 -17.890625 L 13.15625 0 L 4.0625 0 Z M 4.0625 -32.0625 "/></g></g></g><g fill="#333333" fill-opacity="1"><g transform="translate(53.460939, 240.033675)"><g><path d="M 5.4375 -41.875 L 14.65625 -41.875 L 14.65625 0 L 5.4375 0 Z M 5.4375 -41.875 "/></g></g></g><g fill="#333333" fill-opacity="1"><g transform="translate(73.561856, 240.033675)"><g><path d="M 4.0625 -32.0625 L 13.15625 -32.0625 L 13.15625 -27.515625 C 13.675781 -28.191406 14.242188 -28.835938 14.859375 -29.453125 C 15.484375 -30.078125 16.171875 -30.628906 16.921875 -31.109375 C 17.679688 -31.585938 18.519531 -31.96875 19.4375 -32.25 C 20.351562 -32.53125 21.394531 -32.671875 22.5625 -32.671875 C 26.03125 -32.671875 28.707031 -31.613281 30.59375 -29.5 C 32.488281 -27.382812 33.4375 -24.472656 33.4375 -20.765625 L 33.4375 0 L 24.34375 0 L 24.34375 -17.890625 C 24.34375 -20.046875 23.863281 -21.671875 22.90625 -22.765625 C 21.957031 -23.859375 20.601562 -24.40625 18.84375 -24.40625 C 17.09375 -24.40625 15.707031 -23.859375 14.6875 -22.765625 C 13.664062 -21.671875 13.15625 -20.046875 13.15625 -17.890625 L 13.15625 0 L 4.0625 0 Z M 4.0625 -32.0625 "/></g></g></g></svg>