<svg xmlns="http://www.w3.org/2000/svg" xmlns:xlink="http://www.w3.org/1999/xlink" width="500" zoomAndPan="magnify" viewBox="0 0 375 374.999991" height="500" preserveAspectRatio="xMidYMid meet" version="1.0"><path fill="#accc84" d="M 154.960938 159.683594 L 158.785156 171.457031 L 171.164062 171.457031 L 161.148438 178.734375 L 164.972656 190.503906 L 154.960938 183.230469 L 144.945312 190.503906 L 148.769531 178.734375 L 138.757812 171.457031 L 151.136719 171.457031 Z M 154.960938 159.683594 " fill-opacity="1" fill-rule="nonzero"/><path fill="#accc84" d="M 118.332031 159.683594 L 122.160156 171.457031 L 134.535156 171.457031 L 124.523438 178.734375 L 128.347656 190.503906 L 118.332031 183.230469 L 108.320312 190.503906 L 112.144531 178.734375 L 102.128906 171.457031 L 114.507812 171.457031 Z M 118.332031 159.683594 " fill-opacity="1" fill-rule="nonzero"/><path fill="#accc84" d="M 191.585938 159.683594 L 195.410156 171.457031 L 207.789062 171.457031 L 197.777344 178.734375 L 201.601562 190.503906 L 191.585938 183.230469 L 181.574219 190.503906 L 185.398438 178.734375 L 175.382812 171.457031 L 187.761719 171.457031 Z M 191.585938 159.683594 " fill-opacity="1" fill-rule="nonzero"/><path fill="#accc84" d="M 228.214844 159.683594 L 232.039062 171.457031 L 244.417969 171.457031 L 234.402344 178.734375 L 238.226562 190.503906 L 228.214844 183.230469 L 218.199219 190.503906 L 222.023438 178.734375 L 212.007812 171.457031 L 224.386719 171.457031 Z M 228.214844 159.683594 " fill-opacity="1" fill-rule="nonzero"/><path fill="#accc84" d="M 191.457031 158.726562 L 195.382812 170.816406 L 208.09375 170.816406 L 197.8125 178.285156 L 201.738281 190.371094 L 191.457031 182.902344 L 181.175781 190.371094 L 185.101562 178.285156 L 174.820312 170.816406 L 187.527344 170.816406 Z M 191.457031 158.726562 " fill-opacity="1" fill-rule="nonzero"/><path fill="#accc84" d="M 153.851562 158.726562 L 157.777344 170.816406 L 170.488281 170.816406 L 160.207031 178.285156 L 164.132812 190.371094 L 153.851562 182.902344 L 143.570312 190.371094 L 147.496094 178.285156 L 137.214844 170.816406 L 149.921875 170.816406 Z M 153.851562 158.726562 " fill-opacity="1" fill-rule="nonzero"/><path fill="#accc84" d="M 229.0625 158.726562 L 232.988281 170.816406 L 245.699219 170.816406 L 235.414062 178.285156 L 239.34375 190.371094 L 229.0625 182.902344 L 218.78125 190.371094 L 222.707031 178.285156 L 212.425781 170.816406 L 225.132812 170.816406 Z M 229.0625 158.726562 " fill-opacity="1" fill-rule="nonzero"/><path fill="#accc84" d="M 266.667969 158.726562 L 270.59375 170.816406 L 283.304688 170.816406 L 273.019531 178.285156 L 276.949219 190.371094 L 266.667969 182.902344 L 256.382812 190.371094 L 260.3125 178.285156 L 250.03125 170.816406 L 262.738281 170.816406 Z M 266.667969 158.726562 " fill-opacity="1" fill-rule="nonzero"/></svg>