<svg xmlns="http://www.w3.org/2000/svg" xmlns:xlink="http://www.w3.org/1999/xlink" width="500" zoomAndPan="magnify" viewBox="0 0 375 374.999991" height="500" preserveAspectRatio="xMidYMid meet" version="1.0"><path fill="#000000" d="M 313.011719 75.839844 C 312.695312 75.355469 312.425781 74.84375 312.210938 74.300781 C 311.996094 73.761719 311.839844 73.207031 311.738281 72.636719 C 311.636719 72.0625 311.597656 71.488281 311.613281 70.90625 C 311.628906 70.324219 311.707031 69.753906 311.839844 69.1875 C 311.976562 68.621094 312.167969 68.078125 312.414062 67.550781 C 312.660156 67.027344 312.957031 66.53125 313.304688 66.066406 C 313.652344 65.601562 314.042969 65.175781 314.476562 64.792969 C 314.914062 64.40625 315.382812 64.070312 315.886719 63.785156 C 320.214844 61.496094 324.097656 59.617188 325.601562 60.933594 C 329.125 64.191406 332.1875 67.835938 334.792969 71.867188 C 337.394531 75.898438 339.457031 80.191406 340.976562 84.746094 C 341.59375 86.582031 338.597656 89.855469 335.113281 93.464844 C 334.738281 93.859375 334.320312 94.210938 333.867188 94.511719 C 333.410156 94.816406 332.925781 95.0625 332.414062 95.25 C 331.902344 95.441406 331.375 95.570312 330.832031 95.640625 C 330.289062 95.710938 329.75 95.714844 329.203125 95.660156 C 328.660156 95.605469 328.132812 95.488281 327.613281 95.308594 C 327.097656 95.128906 326.609375 94.894531 326.144531 94.605469 C 325.683594 94.3125 325.257812 93.972656 324.875 93.585938 C 324.492188 93.195312 324.15625 92.769531 323.867188 92.304688 Z M 54.714844 284.175781 C 54.5625 283.929688 54.394531 283.699219 54.214844 283.472656 C 54.03125 283.25 53.839844 283.039062 53.632812 282.835938 C 53.425781 282.636719 53.207031 282.449219 52.976562 282.273438 C 52.75 282.101562 52.507812 281.941406 52.261719 281.796875 C 52.011719 281.648438 51.757812 281.519531 51.492188 281.40625 C 51.226562 281.289062 50.957031 281.191406 50.683594 281.109375 C 50.40625 281.027344 50.125 280.964844 49.84375 280.914062 C 49.558594 280.867188 49.273438 280.835938 48.988281 280.820312 C 48.699219 280.808594 48.410156 280.8125 48.125 280.832031 C 47.835938 280.851562 47.554688 280.890625 47.269531 280.945312 C 46.988281 281 46.710938 281.074219 46.4375 281.164062 C 46.164062 281.25 45.894531 281.355469 45.632812 281.476562 C 45.371094 281.597656 45.121094 281.734375 44.875 281.886719 C 44.628906 282.039062 44.394531 282.203125 44.171875 282.382812 C 43.945312 282.5625 43.734375 282.757812 43.53125 282.960938 C 43.328125 283.167969 43.140625 283.382812 42.964844 283.613281 C 40.082031 287.183594 37.777344 290.371094 38.46875 292.164062 C 40.246094 296.589844 42.507812 300.75 45.246094 304.648438 C 47.988281 308.546875 51.136719 312.082031 54.691406 315.25 C 55.816406 316.28125 59.144531 314.472656 62.859375 312.25 C 63.335938 311.945312 63.773438 311.597656 64.179688 311.207031 C 64.582031 310.8125 64.945312 310.386719 65.265625 309.921875 C 65.585938 309.457031 65.859375 308.96875 66.082031 308.449219 C 66.304688 307.929688 66.472656 307.398438 66.589844 306.84375 C 66.707031 306.292969 66.769531 305.734375 66.777344 305.171875 C 66.785156 304.605469 66.734375 304.046875 66.632812 303.492188 C 66.527344 302.941406 66.371094 302.402344 66.160156 301.878906 C 65.949219 301.355469 65.6875 300.859375 65.378906 300.386719 Z M 95.976562 260.902344 C 88.214844 249.121094 80.449219 237.339844 72.675781 225.558594 C 59.59375 205.699219 59.59375 205.699219 41.648438 220.011719 C 31.160156 228.375 30.28125 233.578125 37.71875 244.914062 C 52.808594 267.917969 68.351562 290.582031 83.019531 313.894531 C 100.558594 341.773438 101.8125 337.03125 124.242188 319.785156 C 129.730469 315.5625 129.902344 311.902344 125.929688 306.15625 C 115.703125 291.289062 105.929688 276.023438 95.976562 260.914062 Z M 338.773438 126.640625 C 323.855469 103.867188 308.515625 81.425781 293.957031 58.394531 C 276.742188 31.175781 275.402344 34.902344 252.546875 52.835938 C 252.269531 52.984375 252 53.148438 251.742188 53.324219 C 251.484375 53.503906 251.238281 53.699219 251.003906 53.90625 C 250.765625 54.113281 250.546875 54.335938 250.335938 54.570312 C 250.128906 54.804688 249.933594 55.050781 249.753906 55.308594 C 249.574219 55.566406 249.410156 55.832031 249.261719 56.109375 C 249.113281 56.386719 248.980469 56.671875 248.867188 56.964844 C 248.753906 57.257812 248.65625 57.554688 248.578125 57.859375 C 248.5 58.164062 248.4375 58.472656 248.394531 58.785156 C 248.355469 59.09375 248.328125 59.410156 248.324219 59.722656 C 248.320312 60.035156 248.332031 60.351562 248.363281 60.664062 C 248.398438 60.976562 248.449219 61.285156 248.515625 61.59375 C 248.585938 61.898438 248.671875 62.199219 248.777344 62.496094 C 248.878906 62.792969 249.003906 63.082031 249.140625 63.363281 C 249.28125 63.644531 249.433594 63.917969 249.605469 64.183594 C 249.777344 64.445312 249.964844 64.699219 250.164062 64.941406 C 250.367188 65.179688 250.582031 65.410156 250.808594 65.625 C 261.492188 81.148438 271.675781 97.050781 282.058594 112.804688 L 304.824219 147.347656 C 317.472656 166.527344 317.472656 166.527344 335.179688 152.484375 C 346.121094 143.835938 346.867188 139 338.773438 126.640625 Z M 140.394531 229.558594 C 128.027344 210.789062 115.660156 192.03125 103.292969 173.289062 C 87.832031 149.839844 87.832031 149.839844 66.132812 166.804688 C 53.734375 176.5 53.113281 180.316406 62.085938 193.953125 C 87.777344 232.996094 113.496094 272.023438 139.242188 311.039062 C 156 336.433594 156.324219 336.460938 179.578125 317.308594 C 189.050781 309.503906 189.808594 304.675781 182.828125 294.011719 C 168.746094 272.484375 154.601562 251 140.394531 229.558594 Z M 274.988281 116.746094 C 262.621094 97.976562 250.253906 79.226562 237.886719 60.488281 C 222.746094 37.550781 222.742188 37.550781 201.496094 54.144531 C 188.363281 64.414062 187.929688 67.320312 197.601562 81.992188 C 223.3125 121.03125 249.039062 160.042969 274.78125 199.027344 C 291.03125 223.664062 291.027344 223.667969 313.40625 205.886719 C 324.335938 197.203125 325.105469 192.902344 317.425781 181.179688 C 303.335938 159.65625 289.1875 138.179688 274.988281 116.746094 Z M 226.328125 143.914062 C 226.011719 143.40625 225.648438 142.933594 225.238281 142.5 C 224.824219 142.066406 224.371094 141.679688 223.875 141.34375 C 223.382812 141.007812 222.859375 140.726562 222.304688 140.496094 C 221.75 140.269531 221.179688 140.105469 220.59375 140 C 220.003906 139.890625 219.410156 139.847656 218.8125 139.867188 C 218.214844 139.886719 217.625 139.96875 217.046875 140.109375 C 216.464844 140.253906 215.90625 140.457031 215.367188 140.71875 C 214.828125 140.980469 214.324219 141.292969 213.851562 141.664062 L 141.894531 197.519531 C 141.410156 197.914062 140.96875 198.351562 140.566406 198.832031 C 140.164062 199.308594 139.804688 199.820312 139.496094 200.363281 C 139.1875 200.90625 138.929688 201.472656 138.726562 202.066406 C 138.519531 202.65625 138.371094 203.261719 138.273438 203.878906 C 138.179688 204.496094 138.140625 205.117188 138.160156 205.746094 C 138.179688 206.371094 138.257812 206.988281 138.390625 207.597656 C 138.523438 208.210938 138.710938 208.804688 138.949219 209.382812 C 139.191406 209.960938 139.484375 210.507812 139.828125 211.03125 L 148.65625 224.433594 C 148.972656 224.945312 149.335938 225.414062 149.746094 225.847656 C 150.160156 226.28125 150.613281 226.667969 151.109375 227.003906 C 151.601562 227.34375 152.125 227.625 152.679688 227.851562 C 153.234375 228.078125 153.804688 228.246094 154.394531 228.351562 C 154.980469 228.457031 155.574219 228.503906 156.171875 228.484375 C 156.769531 228.464844 157.359375 228.382812 157.941406 228.238281 C 158.519531 228.09375 159.082031 227.894531 159.617188 227.632812 C 160.15625 227.371094 160.660156 227.054688 161.132812 226.6875 L 233.089844 170.828125 C 233.574219 170.433594 234.015625 169.996094 234.417969 169.515625 C 234.824219 169.039062 235.179688 168.527344 235.488281 167.984375 C 235.796875 167.441406 236.054688 166.875 236.261719 166.285156 C 236.464844 165.691406 236.617188 165.089844 236.710938 164.46875 C 236.804688 163.851562 236.84375 163.230469 236.824219 162.605469 C 236.804688 161.976562 236.726562 161.359375 236.597656 160.75 C 236.464844 160.136719 236.277344 159.542969 236.035156 158.964844 C 235.792969 158.390625 235.5 157.839844 235.160156 157.316406 Z M 226.328125 143.914062 " fill-opacity="1" fill-rule="nonzero"/></svg>