<svg xmlns="http://www.w3.org/2000/svg" xmlns:xlink="http://www.w3.org/1999/xlink" width="500" zoomAndPan="magnify" viewBox="0 0 375 374.999991" height="500" preserveAspectRatio="xMidYMid meet" version="1.0"><defs><clipPath id="05654d207a"><path d="M 148 34.351562 L 245 34.351562 L 245 131 L 148 131 Z M 148 34.351562 " clip-rule="nonzero"/></clipPath><clipPath id="bdb4eb8f1c"><path d="M 262 148 L 358.839844 148 L 358.839844 245 L 262 245 Z M 262 148 " clip-rule="nonzero"/></clipPath><clipPath id="2327a9ccce"><path d="M 148 262 L 245 262 L 245 359.101562 L 148 359.101562 Z M 148 262 " clip-rule="nonzero"/></clipPath><clipPath id="80362b20e3"><path d="M 34.089844 148 L 131 148 L 131 245 L 34.089844 245 Z M 34.089844 148 " clip-rule="nonzero"/></clipPath></defs><path fill="#000000" d="M 91.738281 158.273438 C 90.722656 158.273438 89.71875 158.058594 88.796875 157.660156 C 85.082031 156.039062 83.375 151.675781 85.003906 147.96875 C 97.339844 119.839844 119.597656 97.507812 147.761719 85.21875 C 151.46875 83.597656 155.824219 85.304688 157.453125 89.011719 C 159.074219 92.710938 157.367188 97.082031 153.660156 98.703125 C 128.910156 109.542969 109.320312 129.132812 98.480469 153.875 C 97.304688 156.550781 94.65625 158.273438 91.738281 158.273438 Z M 301.242188 158.273438 C 298.320312 158.273438 295.675781 156.550781 294.5 153.867188 C 283.6875 129.105469 264.070312 109.515625 239.320312 98.695312 C 235.609375 97.074219 233.902344 92.710938 235.535156 89.003906 C 237.15625 85.304688 241.519531 83.589844 245.21875 85.210938 C 273.371094 97.507812 295.65625 119.820312 307.984375 147.96875 C 309.617188 151.675781 307.898438 156.027344 304.191406 157.648438 C 303.253906 158.058594 302.257812 158.273438 301.242188 158.273438 Z M 150.703125 308.789062 C 149.6875 308.789062 148.683594 308.578125 147.753906 308.171875 C 119.589844 295.882812 97.332031 273.546875 84.996094 245.414062 C 83.363281 241.707031 85.082031 237.34375 88.789062 235.710938 C 92.488281 234.089844 96.859375 235.796875 98.46875 239.503906 C 109.289062 264.253906 128.902344 283.835938 153.640625 294.667969 C 157.347656 296.296875 159.066406 300.652344 157.433594 304.367188 C 156.269531 307.070312 153.621094 308.789062 150.703125 308.789062 Z M 242.277344 308.796875 C 239.355469 308.796875 236.703125 307.070312 235.527344 304.386719 C 233.902344 300.679688 235.609375 296.328125 239.320312 294.695312 C 264.058594 283.855469 283.671875 264.273438 294.480469 239.523438 C 296.101562 235.816406 300.464844 234.101562 304.171875 235.730469 C 307.871094 237.363281 309.585938 241.714844 307.957031 245.421875 C 295.628906 273.546875 273.398438 295.984375 245.1875 308.191406 C 244.277344 308.589844 243.28125 308.796875 242.277344 308.796875 Z M 242.277344 308.796875 " fill-opacity="1" fill-rule="evenodd"/><g clip-path="url(#05654d207a)"><path fill="#000000" d="M 196.496094 34.371094 C 170.007812 34.371094 148.453125 55.925781 148.453125 82.414062 C 148.453125 108.898438 170.007812 130.441406 196.496094 130.441406 C 222.980469 130.441406 244.523438 108.898438 244.523438 82.414062 C 244.523438 55.925781 222.980469 34.371094 196.496094 34.371094 Z M 182.714844 90.8125 L 182.714844 65.523438 C 182.714844 63.757812 183.929688 62.242188 185.644531 61.84375 L 218.152344 54.34375 C 219.273438 54.078125 220.449219 54.363281 221.347656 55.0625 C 222.257812 55.785156 222.769531 56.867188 222.769531 58.023438 L 222.769531 95.660156 C 222.703125 101.132812 218.230469 105.558594 212.746094 105.558594 C 207.21875 105.558594 202.714844 101.066406 202.714844 95.535156 C 202.714844 90.007812 207.21875 85.511719 212.746094 85.511719 C 213.601562 85.511719 214.4375 85.617188 215.222656 85.824219 L 215.222656 62.765625 L 190.253906 68.53125 L 190.253906 100.535156 L 190.246094 100.722656 C 190.148438 106.15625 185.695312 110.566406 180.230469 110.566406 C 174.703125 110.566406 170.207031 106.0625 170.207031 100.542969 C 170.207031 95.015625 174.703125 90.519531 180.230469 90.519531 C 181.085938 90.511719 181.910156 90.613281 182.714844 90.8125 Z M 182.714844 90.8125 " fill-opacity="1" fill-rule="evenodd"/></g><path fill="#000000" d="M 180.230469 98.058594 C 178.867188 98.058594 177.757812 99.167969 177.757812 100.535156 C 177.757812 101.898438 178.867188 103.007812 180.230469 103.007812 C 181.605469 103.007812 182.707031 101.898438 182.707031 100.535156 C 182.714844 99.167969 181.597656 98.058594 180.230469 98.058594 Z M 180.230469 98.058594 " fill-opacity="1" fill-rule="evenodd"/><path fill="#000000" d="M 210.261719 95.527344 C 210.261719 96.894531 211.371094 98.003906 212.746094 98.003906 C 214.113281 98.003906 215.222656 96.894531 215.222656 95.527344 C 215.222656 94.160156 214.113281 93.050781 212.746094 93.050781 C 211.371094 93.050781 210.261719 94.160156 210.261719 95.527344 Z M 210.261719 95.527344 " fill-opacity="1" fill-rule="evenodd"/><path fill="#000000" d="M 323.898438 186.304688 C 323.898438 188.394531 322.207031 190.082031 320.121094 190.082031 L 318.898438 190.082031 C 316.8125 190.082031 315.125 188.394531 315.125 186.304688 C 315.125 184.21875 316.8125 182.53125 318.898438 182.53125 L 320.121094 182.53125 C 322.199219 182.542969 323.898438 184.230469 323.898438 186.304688 Z M 310.773438 171.199219 C 297.734375 171.199219 286.902344 180.863281 285.074219 193.410156 L 336.480469 193.410156 C 334.648438 180.863281 323.820312 171.199219 310.773438 171.199219 Z M 311.386719 182.078125 L 310.164062 182.078125 C 308.078125 182.078125 306.390625 180.390625 306.390625 178.304688 C 306.390625 176.214844 308.078125 174.527344 310.164062 174.527344 L 311.386719 174.527344 C 313.476562 174.527344 315.164062 176.214844 315.164062 178.304688 C 315.171875 180.390625 313.476562 182.078125 311.386719 182.078125 Z M 306.429688 186.304688 C 306.429688 188.394531 304.742188 190.082031 302.65625 190.082031 L 301.441406 190.082031 C 299.355469 190.082031 297.667969 188.394531 297.667969 186.304688 C 297.667969 184.21875 299.355469 182.53125 301.441406 182.53125 L 302.65625 182.53125 C 304.742188 182.542969 306.429688 184.230469 306.429688 186.304688 Z M 306.429688 186.304688 " fill-opacity="1" fill-rule="evenodd"/><path fill="#000000" d="M 284.796875 200.957031 L 336.765625 200.957031 L 336.765625 209.046875 L 284.796875 209.046875 Z M 284.796875 200.957031 " fill-opacity="1" fill-rule="evenodd"/><g clip-path="url(#bdb4eb8f1c)"><path fill="#000000" d="M 340.53125 216.59375 L 281.023438 216.59375 C 278.9375 216.59375 277.25 214.90625 277.25 212.820312 L 277.25 197.183594 C 277.25 178.703125 292.289062 163.652344 310.773438 163.652344 C 329.265625 163.652344 344.304688 178.691406 344.304688 197.183594 L 344.304688 212.8125 C 344.3125 214.90625 342.625 216.59375 340.53125 216.59375 Z M 262.703125 196.691406 C 262.703125 219.820312 279.109375 239.183594 300.902344 243.746094 C 300.929688 243.753906 300.957031 243.761719 300.984375 243.761719 C 304.144531 244.417969 307.414062 244.757812 310.761719 244.757812 C 337.265625 244.757812 358.839844 223.195312 358.839844 196.679688 C 358.839844 170.167969 337.277344 148.613281 310.761719 148.613281 C 284.269531 148.621094 262.703125 170.1875 262.703125 196.691406 Z M 262.703125 196.691406 " fill-opacity="1" fill-rule="evenodd"/></g><path fill="#000000" d="M 216.808594 295.398438 C 214.160156 299.84375 212.691406 305.316406 212.691406 310.976562 C 212.691406 316.640625 214.160156 322.109375 216.808594 326.558594 C 220.125 322.234375 222.097656 316.828125 222.097656 310.976562 C 222.109375 305.125 220.136719 299.722656 216.808594 295.398438 Z M 216.808594 295.398438 " fill-opacity="1" fill-rule="evenodd"/><path fill="#000000" d="M 181.730469 290.058594 C 185.683594 295.9375 187.828125 303.230469 187.828125 310.988281 C 187.828125 318.742188 185.683594 326.027344 181.730469 331.914062 C 185.902344 334.875 191.003906 336.609375 196.496094 336.609375 C 201.984375 336.609375 207.078125 334.875 211.257812 331.914062 C 207.304688 326.035156 205.160156 318.742188 205.160156 310.988281 C 205.160156 303.230469 207.3125 295.949219 211.257812 290.058594 C 207.085938 287.101562 201.984375 285.363281 196.496094 285.363281 C 191.003906 285.363281 185.902344 287.101562 181.730469 290.058594 Z M 181.730469 290.058594 " fill-opacity="1" fill-rule="evenodd"/><path fill="#000000" d="M 176.164062 295.398438 C 172.84375 299.722656 170.863281 305.125 170.863281 310.976562 C 170.863281 316.839844 172.84375 322.234375 176.164062 326.558594 C 178.808594 322.109375 180.277344 316.640625 180.277344 310.976562 C 180.277344 305.316406 178.808594 299.84375 176.164062 295.398438 Z M 176.164062 295.398438 " fill-opacity="1" fill-rule="evenodd"/><g clip-path="url(#2327a9ccce)"><path fill="#000000" d="M 229.65625 310.976562 C 229.65625 320.421875 225.683594 328.957031 219.328125 335.007812 C 219.207031 335.140625 219.082031 335.273438 218.949219 335.394531 C 218.875 335.453125 218.796875 335.519531 218.722656 335.578125 C 212.832031 340.90625 205.027344 344.148438 196.496094 344.148438 C 187.949219 344.148438 180.15625 340.90625 174.277344 335.578125 C 174.191406 335.519531 174.113281 335.453125 174.046875 335.386719 C 173.90625 335.261719 173.773438 335.121094 173.648438 334.988281 C 167.296875 328.9375 163.332031 320.414062 163.332031 310.976562 C 163.332031 301.53125 167.296875 293 173.648438 286.957031 C 173.773438 286.816406 173.90625 286.691406 174.046875 286.558594 C 174.125 286.492188 174.199219 286.4375 174.277344 286.371094 C 180.164062 281.050781 187.960938 277.796875 196.503906 277.796875 C 205.046875 277.796875 212.84375 281.039062 218.730469 286.371094 C 218.808594 286.425781 218.882812 286.492188 218.960938 286.550781 C 219.101562 286.671875 219.226562 286.804688 219.347656 286.9375 C 225.683594 293.007812 229.65625 301.53125 229.65625 310.976562 Z M 196.496094 262.871094 C 169.972656 262.871094 148.386719 284.453125 148.386719 310.976562 C 148.386719 337.5 169.972656 359.085938 196.496094 359.085938 C 223.019531 359.085938 244.589844 337.519531 244.589844 310.988281 C 244.589844 284.453125 223.019531 262.871094 196.496094 262.871094 Z M 196.496094 262.871094 " fill-opacity="1" fill-rule="evenodd"/></g><path fill="#000000" d="M 76.914062 195.371094 L 76.914062 198.019531 L 80.460938 196.691406 Z M 76.914062 195.371094 " fill-opacity="1" fill-rule="evenodd"/><path fill="#000000" d="M 105.554688 181.1875 L 58.839844 181.1875 L 58.839844 212.195312 L 105.5625 212.195312 Z M 74.460938 186.402344 L 92.582031 193.164062 C 94.058594 193.710938 95.039062 195.125 95.039062 196.691406 C 95.039062 198.273438 94.058594 199.675781 92.582031 200.226562 L 74.460938 206.980469 C 74.023438 207.140625 73.578125 207.214844 73.140625 207.214844 C 72.382812 207.214844 71.632812 206.988281 70.988281 206.542969 C 69.972656 205.832031 69.359375 204.675781 69.359375 203.441406 L 69.359375 189.917969 C 69.359375 188.675781 69.964844 187.53125 70.980469 186.820312 C 72.003906 186.125 73.300781 185.964844 74.460938 186.402344 Z M 74.460938 186.402344 " fill-opacity="1" fill-rule="evenodd"/><g clip-path="url(#80362b20e3)"><path fill="#000000" d="M 113.101562 177.410156 L 113.101562 215.96875 C 113.101562 218.054688 111.40625 219.742188 109.328125 219.742188 L 55.058594 219.742188 C 52.972656 219.742188 51.285156 218.054688 51.285156 215.96875 L 51.285156 177.410156 C 51.285156 175.324219 52.972656 173.636719 55.058594 173.636719 L 109.328125 173.636719 C 111.414062 173.636719 113.101562 175.324219 113.101562 177.410156 Z M 82.199219 148.582031 C 55.664062 148.582031 34.089844 170.167969 34.089844 196.691406 C 34.089844 223.214844 55.675781 244.804688 82.199219 244.804688 C 108.722656 244.804688 130.3125 223.214844 130.3125 196.691406 C 130.3125 170.167969 108.730469 148.582031 82.199219 148.582031 Z M 82.199219 148.582031 " fill-opacity="1" fill-rule="evenodd"/></g></svg>