<svg xmlns="http://www.w3.org/2000/svg" xmlns:xlink="http://www.w3.org/1999/xlink" width="500" zoomAndPan="magnify" viewBox="0 0 375 374.999991" height="500" preserveAspectRatio="xMidYMid meet" version="1.0"><defs><clipPath id="cc1598aa2a"><path d="M 158 179.28125 L 193 179.28125 L 193 241 L 158 241 Z M 158 179.28125 " clip-rule="nonzero"/></clipPath><clipPath id="a798657e2f"><path d="M 175 149.179688 L 200.234375 149.179688 L 200.234375 158.777344 L 175 158.777344 Z M 175 149.179688 " clip-rule="nonzero"/></clipPath><clipPath id="cb4b96e174"><path d="M 186.128906 149.179688 L 200.234375 149.179688 L 200.234375 158.777344 L 186.128906 158.777344 Z M 186.128906 149.179688 " clip-rule="nonzero"/></clipPath><clipPath id="942b1dbe56"><path d="M 117.375 69 L 135 69 L 135 77 L 117.375 77 Z M 117.375 69 " clip-rule="nonzero"/></clipPath><clipPath id="b59f60b91d"><path d="M 184 8.777344 L 191 8.777344 L 191 26 L 184 26 Z M 184 8.777344 " clip-rule="nonzero"/></clipPath><clipPath id="8c1685ecbe"><path d="M 240.941406 69.363281 L 257.609375 69.363281 L 257.609375 76.253906 L 240.941406 76.253906 Z M 240.941406 69.363281 " clip-rule="nonzero"/></clipPath><clipPath id="2b4b05f062"><path d="M 167.136719 79 L 215 79 L 215 132.949219 L 167.136719 132.949219 Z M 167.136719 79 " clip-rule="nonzero"/></clipPath></defs><path fill="#537430" d="M 55.039062 234.941406 C 55.246094 231.441406 55.628906 224.914062 55.671875 223.9375 C 56.21875 211.648438 56.316406 199.523438 53.421875 187.476562 C 52.898438 185.28125 50.6875 183.925781 48.496094 184.457031 C 46.296875 184.980469 44.945312 187.191406 45.472656 189.386719 C 48.183594 200.683594 48.019531 212.054688 47.503906 223.574219 C 47.445312 224.847656 46.648438 232.820312 46.695312 236.511719 C 46.722656 238.582031 47.265625 239.984375 47.585938 240.476562 C 48.089844 241.242188 49.097656 242.160156 50.730469 242.640625 C 52.71875 243.226562 56.804688 243.273438 57.90625 243.332031 C 65.347656 243.714844 73.015625 243.1875 80.476562 243.078125 C 82.734375 243.046875 84.539062 241.191406 84.507812 238.933594 C 84.472656 236.675781 82.613281 234.871094 80.359375 234.902344 C 73.074219 235.007812 65.589844 235.539062 58.324219 235.167969 C 57.882812 235.144531 56.34375 235.035156 55.039062 234.941406 Z M 55.039062 234.941406 " fill-opacity="1" fill-rule="evenodd"/><path fill="#537430" d="M 104.695312 204.777344 C 94.585938 199.640625 86.957031 202.914062 82.941406 208.507812 C 76.972656 216.832031 78.960938 231.527344 93.757812 235.238281 C 101.605469 237.203125 107.726562 234.035156 111.144531 229.09375 C 116.230469 221.75 115.300781 210.160156 104.695312 204.777344 Z M 101 212.074219 C 106.40625 214.816406 107.011719 220.695312 104.417969 224.441406 C 102.722656 226.894531 99.628906 228.277344 95.746094 227.304688 C 87.882812 225.335938 86.414062 217.699219 89.589844 213.273438 C 91.675781 210.371094 95.738281 209.402344 101 212.074219 Z M 101 212.074219 " fill-opacity="1" fill-rule="evenodd"/><path fill="#537430" d="M 145.097656 231.21875 C 145.082031 234.3125 145.046875 237.234375 144.960938 239.203125 C 144.867188 241.464844 146.617188 243.371094 148.871094 243.472656 C 151.125 243.566406 153.039062 241.8125 153.132812 239.558594 C 153.421875 232.769531 153.394531 217.449219 153.132812 215.417969 C 152.835938 213.078125 151.292969 212.296875 150.953125 212.117188 C 149.851562 211.519531 148.734375 211.46875 147.617188 211.875 C 147.082031 212.070312 145.589844 212.59375 145.03125 214.753906 C 144.023438 218.570312 143.597656 219.207031 141.453125 222.699219 C 139.539062 225.808594 137.308594 227.378906 135.019531 227.597656 C 131.804688 227.894531 128.8125 225.648438 127.628906 222.78125 C 126.253906 219.433594 127.90625 215.507812 133.847656 212.816406 C 137.394531 211.21875 141.222656 210.117188 145.070312 209.535156 C 147.300781 209.195312 148.84375 207.117188 148.503906 204.886719 C 148.167969 202.652344 146.082031 201.109375 143.851562 201.445312 C 139.273438 202.140625 134.699219 203.457031 130.476562 205.363281 C 124.933594 207.871094 121.789062 211.246094 120.234375 214.644531 C 118.492188 218.433594 118.632812 222.394531 120.066406 225.878906 C 122.542969 231.921875 129.011719 236.371094 135.78125 235.734375 C 138.894531 235.445312 142.164062 234.117188 145.097656 231.21875 Z M 145.097656 231.21875 " fill-opacity="1" fill-rule="evenodd"/><g clip-path="url(#cc1598aa2a)"><path fill="#537430" d="M 181.566406 210.839844 C 176.15625 208.582031 170.015625 208.3125 164.835938 211.761719 C 160.195312 214.855469 157.917969 220.398438 158.210938 225.847656 C 158.507812 231.339844 161.390625 236.59375 166.566406 239.074219 C 170.328125 240.878906 174.066406 240.460938 177.402344 238.695312 C 180.160156 237.238281 182.617188 234.769531 184.433594 232.152344 C 185.183594 233.570312 186.734375 234.476562 188.433594 234.320312 C 190.683594 234.113281 192.335938 232.117188 192.128906 229.871094 C 191.839844 226.816406 191.375 223.757812 191.011719 220.695312 C 191.375 219.597656 191.265625 218.378906 190.675781 217.363281 C 190.53125 215.679688 190.457031 213.988281 190.492188 212.292969 C 190.570312 208.542969 189.03125 187.316406 188.683594 183.671875 C 188.582031 182.558594 188.328125 181.953125 188.292969 181.878906 C 187.785156 180.734375 187.042969 180.25 186.601562 179.992188 C 185.5 179.355469 184.417969 179.304688 183.382812 179.609375 C 182.992188 179.730469 180.660156 180.320312 180.46875 183.28125 C 180.003906 190.359375 181 198.0625 181.410156 205.652344 C 181.503906 207.390625 181.566406 209.125 181.566406 210.839844 Z M 180.816406 219.535156 C 177.292969 217.265625 172.992188 216.160156 169.371094 218.570312 C 167.144531 220.054688 166.238281 222.792969 166.382812 225.40625 C 166.515625 227.976562 167.683594 230.542969 170.101562 231.703125 C 171.734375 232.484375 173.304688 231.78125 174.65625 230.777344 C 176.65625 229.289062 178.253906 227.003906 179.125 225.015625 C 179.894531 223.25 180.441406 221.421875 180.816406 219.535156 Z M 180.816406 219.535156 " fill-opacity="1" fill-rule="evenodd"/></g><path fill="#537430" d="M 197.03125 210.539062 C 197.734375 219.085938 197.453125 227.484375 197.246094 236.035156 C 197.191406 238.289062 198.980469 240.171875 201.234375 240.222656 C 203.492188 240.277344 205.367188 238.488281 205.421875 236.234375 C 205.632812 227.390625 205.910156 218.707031 205.183594 209.871094 C 205 207.621094 203.023438 205.945312 200.773438 206.128906 C 198.523438 206.3125 196.847656 208.285156 197.03125 210.539062 Z M 197.03125 210.539062 " fill-opacity="1" fill-rule="evenodd"/><path fill="#537430" d="M 197.839844 197.398438 C 198.484375 197.769531 199.128906 198.117188 199.78125 198.46875 C 201.765625 199.542969 204.25 198.800781 205.324219 196.8125 C 206.394531 194.828125 205.648438 192.34375 203.667969 191.273438 C 203.0625 190.945312 202.460938 190.621094 201.863281 190.28125 C 199.894531 189.171875 197.402344 189.867188 196.292969 191.828125 C 195.175781 193.796875 195.871094 196.289062 197.839844 197.398438 Z M 197.839844 197.398438 " fill-opacity="1" fill-rule="evenodd"/><path fill="#537430" d="M 290.785156 239.691406 C 291.429688 240.0625 292.074219 240.410156 292.730469 240.761719 C 294.710938 241.835938 297.195312 241.09375 298.269531 239.105469 C 299.34375 237.121094 298.597656 234.636719 296.613281 233.566406 C 296.011719 233.238281 295.40625 232.914062 294.808594 232.574219 C 292.839844 231.464844 290.347656 232.160156 289.238281 234.121094 C 288.125 236.089844 288.820312 238.582031 290.785156 239.691406 Z M 290.785156 239.691406 " fill-opacity="1" fill-rule="evenodd"/><path fill="#537430" d="M 306.347656 239.691406 C 306.992188 240.0625 307.632812 240.410156 308.289062 240.761719 C 310.273438 241.835938 312.757812 241.09375 313.828125 239.105469 C 314.902344 237.121094 314.15625 234.636719 312.171875 233.566406 C 311.570312 233.238281 310.96875 232.914062 310.367188 232.574219 C 308.402344 231.464844 305.90625 232.160156 304.796875 234.121094 C 303.683594 236.089844 304.378906 238.582031 306.347656 239.691406 Z M 306.347656 239.691406 " fill-opacity="1" fill-rule="evenodd"/><path fill="#537430" d="M 321.90625 239.691406 C 322.550781 240.0625 323.195312 240.410156 323.847656 240.761719 C 325.832031 241.835938 328.316406 241.09375 329.390625 239.105469 C 330.460938 237.121094 329.714844 234.636719 327.734375 233.566406 C 327.128906 233.238281 326.527344 232.914062 325.929688 232.574219 C 323.960938 231.464844 321.464844 232.160156 320.359375 234.121094 C 319.242188 236.089844 319.9375 238.582031 321.90625 239.691406 Z M 321.90625 239.691406 " fill-opacity="1" fill-rule="evenodd"/><path fill="#537430" d="M 213.210938 211.785156 C 213.40625 219.574219 212.867188 227.125 212.453125 234.886719 C 212.332031 237.140625 214.066406 239.070312 216.320312 239.1875 C 218.574219 239.308594 220.5 237.578125 220.617188 235.324219 C 221.046875 227.351562 221.582031 219.585938 221.382812 211.582031 C 221.328125 209.324219 219.453125 207.539062 217.199219 207.59375 C 214.9375 207.652344 213.15625 209.527344 213.210938 211.785156 Z M 213.210938 211.785156 " fill-opacity="1" fill-rule="evenodd"/><path fill="#537430" d="M 230.605469 214.878906 C 230.691406 215.0625 230.789062 215.273438 230.851562 215.449219 C 231.148438 216.335938 231.332031 217.382812 231.457031 218.519531 C 232.128906 224.507812 231.140625 232.472656 231.066406 234.984375 C 231 237.238281 232.777344 239.125 235.03125 239.191406 C 237.289062 239.257812 239.175781 237.480469 239.242188 235.226562 C 239.335938 232.015625 240.621094 220.710938 238.988281 214.171875 C 237.777344 209.328125 234.921875 206.628906 231.191406 206.5625 C 229.59375 206.535156 227.398438 207.210938 225.089844 208.515625 C 221.40625 210.601562 217.035156 214.296875 215.03125 215.664062 C 213.164062 216.941406 212.691406 219.488281 213.960938 221.347656 C 215.242188 223.214844 217.785156 223.691406 219.644531 222.417969 C 221.296875 221.28125 224.609375 218.496094 227.757812 216.464844 C 228.625 215.902344 229.476562 215.398438 230.261719 215.046875 C 230.386719 214.996094 230.496094 214.933594 230.605469 214.878906 Z M 230.605469 214.878906 " fill-opacity="1" fill-rule="evenodd"/><path fill="#537430" d="M 266.578125 235.046875 C 266.195312 238.257812 265.675781 241.746094 263.890625 244.214844 C 260.972656 248.269531 254.84375 246.675781 252.011719 243.09375 C 250.613281 241.316406 248.035156 241.023438 246.265625 242.417969 C 244.492188 243.816406 244.195312 246.394531 245.59375 248.164062 C 251.515625 255.65625 264.425781 257.464844 270.523438 248.996094 C 273.574219 244.769531 274.328125 238.414062 275.015625 233.40625 C 275.621094 229.03125 275.703125 224.652344 275.757812 220.246094 C 275.773438 218.824219 275.820312 217.398438 275.777344 215.976562 C 275.800781 215.746094 275.933594 213.957031 275.875 213.515625 C 275.792969 212.875 275.601562 212.390625 275.414062 212.042969 C 274.550781 210.390625 273.203125 209.828125 271.777344 209.820312 C 271.046875 209.8125 269.722656 209.886719 268.476562 211.386719 C 268.285156 211.617188 268.085938 211.929688 267.886719 212.3125 C 266.289062 211.265625 264.554688 210.445312 262.652344 210.011719 C 260.574219 209.542969 258.207031 209.425781 256.101562 209.820312 C 251.265625 210.71875 248.464844 213.160156 246.992188 216.035156 C 244.914062 220.105469 245.632812 225.53125 248.332031 229.878906 C 251.035156 234.234375 255.578125 237.285156 260.207031 237.203125 C 262.296875 237.167969 264.476562 236.550781 266.578125 235.046875 Z M 265.609375 220.808594 C 265.4375 220.707031 265.28125 220.585938 265.128906 220.453125 C 263.859375 219.375 262.496094 218.363281 260.84375 217.992188 C 259.8125 217.757812 258.640625 217.664062 257.597656 217.859375 C 255.921875 218.171875 254.789062 218.757812 254.277344 219.753906 C 253.398438 221.480469 254.136719 223.71875 255.28125 225.566406 C 256.421875 227.40625 258.105469 229.0625 260.0625 229.027344 C 261.222656 229.003906 262.304688 228.222656 263.394531 226.800781 C 264.484375 225.375 265.117188 223.09375 265.609375 220.808594 Z M 265.609375 220.808594 " fill-opacity="1" fill-rule="evenodd"/><path fill="#537430" d="M 23.96875 263.121094 C 20.964844 262.839844 17.96875 263.8125 15.699219 265.8125 C 13.398438 267.835938 12.050781 270.726562 11.980469 273.789062 C 11.5 284.527344 9.824219 301.496094 10.578125 312.8125 C 10.972656 318.730469 12.246094 323.296875 14.101562 325.535156 C 14.601562 326.136719 15.890625 327.140625 18.292969 327.652344 C 22.542969 328.558594 33.265625 329.195312 48.449219 329.527344 C 122.507812 331.152344 305.113281 326.492188 349.078125 323.039062 C 353.105469 322.722656 356.027344 322.40625 357.65625 322.117188 C 358.984375 321.878906 359.832031 321.539062 360.242188 321.3125 C 361.714844 320.488281 362.175781 319.339844 362.363281 318.53125 C 364.097656 310.976562 365.152344 289.988281 363.535156 276.042969 C 363.089844 272.230469 362.441406 268.914062 361.589844 266.464844 C 360.820312 264.238281 359.8125 262.597656 358.765625 261.570312 C 358.28125 261.09375 356.976562 260.261719 354.640625 259.886719 C 350.378906 259.210938 339.617188 258.875 324.402344 258.8125 C 250 258.539062 66.785156 264.46875 23.96875 263.121094 Z M 353.484375 268.070312 C 353.742188 268.597656 353.933594 269.296875 354.160156 270.097656 C 354.703125 271.992188 355.105469 274.347656 355.414062 276.988281 C 356.765625 288.679688 356.171875 305.667969 354.867188 314.136719 C 350.296875 314.566406 337.820312 315.664062 322.921875 316.367188 C 254.015625 319.59375 102.902344 322.957031 42.75 321.199219 C 31.804688 320.882812 22.417969 319.847656 19.96875 319.558594 C 19.785156 319.101562 19.636719 318.539062 19.488281 317.910156 C 19.113281 316.328125 18.878906 314.414062 18.742188 312.265625 C 18 301.195312 19.6875 284.59375 20.148438 274.101562 C 20.152344 274.066406 20.152344 274.035156 20.152344 274 C 20.167969 273.210938 20.511719 272.472656 21.101562 271.949219 C 21.691406 271.433594 22.472656 271.183594 23.253906 271.269531 C 23.363281 271.28125 23.464844 271.289062 23.570312 271.289062 C 66.15625 272.65625 249.832031 266.714844 324.371094 266.992188 C 338.488281 267.046875 350.660156 267.867188 353.484375 268.070312 Z M 353.484375 268.070312 " fill-opacity="1" fill-rule="evenodd"/><path fill="#c9e0c9" d="M 29.835938 278.539062 C 29.152344 278.484375 28.476562 278.703125 27.953125 279.15625 C 27.4375 279.605469 27.121094 280.246094 27.078125 280.933594 C 26.351562 292.582031 25.289062 305.519531 26.289062 310.84375 C 27.601562 317.789062 299.441406 310.4375 299.191406 308 C 298.671875 303.089844 299.9375 281.617188 296.847656 277.335938 C 293.863281 273.1875 65.894531 280.011719 29.835938 278.539062 Z M 29.835938 278.539062 " fill-opacity="1" fill-rule="evenodd"/><path fill="#ffce00" d="M 187.570312 35.238281 C 166.214844 35.238281 148.902344 52.550781 148.902344 73.90625 C 148.902344 81.4375 151.054688 88.464844 154.777344 94.410156 C 156.433594 97.050781 158.507812 99.40625 160.871094 101.441406 C 164.621094 104.667969 172.703125 113.117188 172.703125 126.027344 C 172.707031 126.152344 172.710938 126.277344 172.714844 126.398438 C 172.871094 130.65625 176.390625 134.015625 180.648438 134.015625 L 194.492188 134.015625 C 198.75 134.015625 202.269531 130.65625 202.425781 126.398438 C 202.429688 126.277344 202.433594 126.152344 202.4375 126.027344 C 202.4375 113.117188 210.519531 104.667969 214.269531 101.441406 C 216.636719 99.40625 218.710938 97.050781 220.367188 94.410156 C 224.089844 88.464844 226.242188 81.4375 226.242188 73.90625 C 226.242188 52.550781 208.929688 35.238281 187.570312 35.238281 " fill-opacity="1" fill-rule="nonzero"/><path fill="#7f8080" d="M 198.859375 138.628906 L 176.28125 138.628906 C 175.421875 138.628906 174.726562 137.933594 174.726562 137.074219 C 174.726562 136.214844 175.421875 135.515625 176.28125 135.515625 L 198.859375 135.515625 C 199.71875 135.515625 200.414062 136.214844 200.414062 137.074219 C 200.414062 137.933594 199.71875 138.628906 198.859375 138.628906 " fill-opacity="1" fill-rule="nonzero"/><path fill="#7f8080" d="M 198.859375 143.238281 L 176.28125 143.238281 C 175.421875 143.238281 174.726562 142.539062 174.726562 141.679688 C 174.726562 140.820312 175.421875 140.125 176.28125 140.125 L 198.859375 140.125 C 199.71875 140.125 200.414062 140.820312 200.414062 141.679688 C 200.414062 142.539062 199.71875 143.238281 198.859375 143.238281 " fill-opacity="1" fill-rule="nonzero"/><g clip-path="url(#a798657e2f)"><path fill="#7f8080" d="M 199.363281 149.339844 C 199.851562 149.339844 200.214844 149.789062 200.109375 150.265625 C 199.546875 152.90625 197.9375 156.539062 193.359375 156.539062 C 192.757812 156.539062 192.238281 156.808594 191.789062 157.226562 C 190.691406 158.242188 189.234375 158.777344 187.738281 158.777344 L 187.402344 158.777344 C 185.90625 158.777344 184.449219 158.242188 183.351562 157.226562 C 182.902344 156.808594 182.382812 156.539062 181.785156 156.539062 C 177.203125 156.539062 175.59375 152.90625 175.03125 150.265625 C 174.925781 149.789062 175.289062 149.339844 175.777344 149.339844 L 199.363281 149.339844 " fill-opacity="1" fill-rule="nonzero"/></g><path fill="#7f8080" d="M 198.859375 147.84375 L 176.28125 147.84375 C 175.421875 147.84375 174.726562 147.148438 174.726562 146.289062 C 174.726562 145.429688 175.421875 144.730469 176.28125 144.730469 L 198.859375 144.730469 C 199.71875 144.730469 200.414062 145.429688 200.414062 146.289062 C 200.414062 147.148438 199.71875 147.84375 198.859375 147.84375 " fill-opacity="1" fill-rule="nonzero"/><path fill="#f7c700" d="M 226.242188 73.90625 C 226.242188 81.4375 224.089844 88.464844 220.363281 94.410156 C 218.710938 97.050781 216.636719 99.40625 214.269531 101.441406 C 210.519531 104.667969 202.4375 113.117188 202.4375 126.027344 C 202.433594 126.152344 202.429688 126.277344 202.425781 126.398438 C 202.269531 130.65625 198.75 134.015625 194.492188 134.015625 L 190.40625 134.015625 C 194.664062 134.015625 198.183594 130.65625 198.339844 126.398438 C 198.34375 126.277344 198.347656 126.152344 198.347656 126.027344 C 198.347656 113.117188 206.433594 104.667969 210.183594 101.441406 C 212.546875 99.40625 214.621094 97.050781 216.277344 94.410156 C 220 88.464844 222.152344 81.4375 222.152344 73.90625 C 222.152344 53.238281 205.933594 36.355469 185.527344 35.289062 C 186.203125 35.253906 186.882812 35.238281 187.570312 35.238281 C 208.929688 35.238281 226.242188 52.550781 226.242188 73.90625 " fill-opacity="1" fill-rule="nonzero"/><path fill="#747575" d="M 200.414062 137.074219 C 200.414062 137.503906 200.242188 137.890625 199.960938 138.171875 C 199.679688 138.457031 199.289062 138.628906 198.859375 138.628906 L 197.542969 138.628906 C 197.976562 138.628906 198.363281 138.457031 198.644531 138.171875 C 198.929688 137.890625 199.101562 137.503906 199.101562 137.074219 C 199.101562 136.214844 198.40625 135.515625 197.542969 135.515625 L 198.859375 135.515625 C 199.71875 135.515625 200.414062 136.214844 200.414062 137.074219 " fill-opacity="1" fill-rule="nonzero"/><path fill="#747575" d="M 200.414062 141.679688 C 200.414062 142.109375 200.242188 142.5 199.960938 142.78125 C 199.679688 143.0625 199.289062 143.238281 198.859375 143.238281 L 197.542969 143.238281 C 197.976562 143.238281 198.363281 143.0625 198.644531 142.78125 C 198.929688 142.5 199.101562 142.109375 199.101562 141.679688 C 199.101562 140.820312 198.40625 140.121094 197.542969 140.121094 L 198.859375 140.121094 C 199.71875 140.121094 200.414062 140.820312 200.414062 141.679688 " fill-opacity="1" fill-rule="nonzero"/><g clip-path="url(#cb4b96e174)"><path fill="#747575" d="M 200.109375 150.265625 C 199.546875 152.90625 197.9375 156.539062 193.359375 156.539062 C 192.757812 156.539062 192.238281 156.808594 191.789062 157.226562 C 190.691406 158.242188 189.234375 158.777344 187.738281 158.777344 L 187.402344 158.777344 C 187.007812 158.777344 186.613281 158.738281 186.230469 158.664062 L 186.425781 158.664062 C 187.921875 158.664062 189.378906 158.128906 190.476562 157.113281 C 190.925781 156.699219 191.445312 156.425781 192.042969 156.425781 C 196.621094 156.425781 198.230469 152.792969 198.796875 150.15625 C 198.867188 149.820312 198.714844 149.503906 198.449219 149.339844 L 199.363281 149.339844 C 199.851562 149.339844 200.214844 149.789062 200.109375 150.265625 " fill-opacity="1" fill-rule="nonzero"/></g><path fill="#747575" d="M 200.414062 146.289062 C 200.414062 146.71875 200.242188 147.105469 199.960938 147.390625 C 199.679688 147.671875 199.289062 147.84375 198.859375 147.84375 L 197.542969 147.84375 C 197.976562 147.84375 198.363281 147.671875 198.644531 147.390625 C 198.929688 147.105469 199.101562 146.71875 199.101562 146.289062 C 199.101562 145.429688 198.40625 144.730469 197.542969 144.730469 L 198.859375 144.730469 C 199.71875 144.730469 200.414062 145.429688 200.414062 146.289062 " fill-opacity="1" fill-rule="nonzero"/><path fill="#ffe575" d="M 160.71875 61.015625 C 160.535156 61.015625 160.347656 60.992188 160.164062 60.933594 C 159.136719 60.625 158.550781 59.542969 158.859375 58.515625 C 160.207031 54.027344 162.652344 50.371094 166.121094 47.652344 C 168.972656 45.421875 171.8125 44.410156 173.253906 44.003906 C 174.285156 43.714844 175.355469 44.316406 175.648438 45.347656 C 175.9375 46.382812 175.335938 47.453125 174.304688 47.742188 C 173.140625 48.070312 170.839844 48.890625 168.515625 50.710938 C 165.6875 52.925781 163.691406 55.925781 162.578125 59.632812 C 162.328125 60.472656 161.554688 61.015625 160.71875 61.015625 " fill-opacity="1" fill-rule="nonzero"/><g clip-path="url(#942b1dbe56)"><path fill="#ffce00" d="M 131.382812 76.167969 C 131.289062 76.167969 131.195312 76.160156 131.097656 76.152344 L 120.035156 75.027344 C 118.503906 74.875 117.390625 73.507812 117.546875 71.980469 C 117.703125 70.453125 119.066406 69.339844 120.597656 69.492188 L 131.660156 70.617188 C 133.1875 70.769531 134.300781 72.136719 134.148438 73.664062 C 134 75.097656 132.792969 76.167969 131.382812 76.167969 " fill-opacity="1" fill-rule="nonzero"/></g><path fill="#ffce00" d="M 141.203125 47.992188 C 140.632812 47.992188 140.058594 47.816406 139.5625 47.457031 L 130.433594 40.785156 C 129.195312 39.878906 128.921875 38.140625 129.828125 36.898438 C 130.734375 35.65625 132.476562 35.386719 133.71875 36.292969 L 142.847656 42.960938 C 144.085938 43.871094 144.359375 45.609375 143.453125 46.851562 C 142.90625 47.59375 142.058594 47.992188 141.203125 47.992188 " fill-opacity="1" fill-rule="nonzero"/><path fill="#ffce00" d="M 161.71875 31.085938 C 160.703125 31.085938 159.726562 30.53125 159.238281 29.566406 L 154.148438 19.566406 C 153.449219 18.199219 153.996094 16.523438 155.363281 15.828125 C 156.734375 15.128906 158.40625 15.675781 159.105469 17.042969 L 164.195312 27.042969 C 164.894531 28.410156 164.347656 30.085938 162.980469 30.78125 C 162.574219 30.988281 162.144531 31.085938 161.71875 31.085938 " fill-opacity="1" fill-rule="nonzero"/><g clip-path="url(#b59f60b91d)"><path fill="#ffce00" d="M 187.570312 25.449219 C 186.035156 25.449219 184.789062 24.207031 184.789062 22.667969 L 184.789062 11.5625 C 184.789062 10.023438 186.035156 8.777344 187.570312 8.777344 C 189.105469 8.777344 190.351562 10.023438 190.351562 11.5625 L 190.351562 22.667969 C 190.351562 24.207031 189.105469 25.449219 187.570312 25.449219 " fill-opacity="1" fill-rule="nonzero"/></g><path fill="#ffce00" d="M 213.421875 31.085938 C 212.996094 31.085938 212.566406 30.988281 212.164062 30.78125 C 210.792969 30.085938 210.25 28.410156 210.945312 27.042969 L 216.035156 17.042969 C 216.734375 15.675781 218.410156 15.128906 219.777344 15.828125 C 221.148438 16.523438 221.691406 18.199219 220.996094 19.566406 L 215.902344 29.566406 C 215.414062 30.53125 214.4375 31.085938 213.421875 31.085938 " fill-opacity="1" fill-rule="nonzero"/><path fill="#ffce00" d="M 233.9375 47.992188 C 233.082031 47.992188 232.234375 47.59375 231.691406 46.851562 C 230.785156 45.609375 231.054688 43.867188 232.296875 42.960938 L 241.425781 36.292969 C 242.664062 35.386719 244.40625 35.65625 245.3125 36.898438 C 246.21875 38.136719 245.949219 39.878906 244.707031 40.785156 L 235.578125 47.457031 C 235.082031 47.816406 234.507812 47.992188 233.9375 47.992188 " fill-opacity="1" fill-rule="nonzero"/><g clip-path="url(#8c1685ecbe)"><path fill="#ffce00" d="M 243.757812 76.167969 C 242.347656 76.167969 241.140625 75.097656 240.996094 73.664062 C 240.839844 72.136719 241.953125 70.769531 243.480469 70.617188 L 254.546875 69.492188 C 256.074219 69.339844 257.4375 70.453125 257.59375 71.980469 C 257.75 73.507812 256.636719 74.875 255.105469 75.027344 L 244.042969 76.152344 C 243.949219 76.160156 243.851562 76.167969 243.757812 76.167969 " fill-opacity="1" fill-rule="nonzero"/></g><g clip-path="url(#2b4b05f062)"><path fill="#212121" d="M 214.253906 82.429688 C 213.453125 79.789062 213.265625 78.199219 211.835938 81.757812 C 211.203125 82.671875 210.359375 83.410156 209.433594 84.019531 C 206.753906 86.042969 203.417969 86.871094 200.421875 88.308594 C 197.167969 89.777344 193.941406 91.921875 192.476562 95.304688 C 191.800781 96.664062 191.214844 98.125 191.042969 99.648438 C 191.109375 100.84375 190.652344 101.933594 190.28125 103.066406 C 190.03125 103.085938 189.523438 101.988281 189.292969 101.738281 C 188.621094 100.886719 188.761719 99.789062 188.609375 98.777344 C 188.296875 94.03125 186.15625 89.082031 182.074219 86.445312 C 179.046875 84.3125 175.398438 83.671875 171.933594 82.605469 C 170.785156 82.027344 169.601562 81.464844 168.632812 80.613281 C 168.222656 80.246094 167.949219 79.601562 167.460938 79.351562 C 167.339844 79.484375 167.15625 79.644531 167.167969 79.789062 C 167.828125 82.539062 167.40625 85.433594 167.875 88.230469 C 168.460938 92.476562 171.207031 96.15625 174.820312 98.34375 C 176.199219 99.234375 177.65625 100.039062 179.261719 100.441406 C 181.761719 101.183594 184.527344 101.28125 186.765625 102.726562 C 187.894531 103.414062 189.242188 104.304688 189.054688 105.808594 C 189.023438 106.394531 189.664062 106.722656 189.773438 107.210938 C 189.957031 109.660156 190.511719 112.085938 190.402344 114.558594 C 190.421875 114.558594 190.433594 114.558594 190.457031 114.558594 C 190.175781 119.660156 189.164062 124.949219 186.144531 129.171875 C 185.777344 129.433594 185.203125 129.226562 184.757812 129.292969 C 183.335938 129.597656 182.238281 130.597656 181.054688 131.382812 C 180.433594 132.011719 178.949219 131.488281 178.785156 132.328125 C 178.546875 132.949219 180.078125 132.535156 180.457031 132.554688 C 183.5625 130.980469 184.320312 129.183594 187.96875 131.523438 C 189.078125 132.402344 189.761719 130.828125 190.792969 130.738281 C 192.671875 130.640625 192.203125 131.011719 193.648438 131.6875 C 194.179688 131.839844 194.777344 131.742188 195.296875 131.902344 C 195.589844 131.914062 195.894531 131.957031 196.179688 131.902344 C 196.363281 131.847656 196.710938 131.5 196.589844 131.273438 C 195.9375 130.707031 194.929688 130.914062 194.160156 130.597656 C 193.625 130.457031 193.191406 130.03125 192.738281 129.78125 C 191.390625 129.542969 190.769531 129.433594 189.652344 130.347656 C 189.261719 130.652344 188.859375 130.652344 188.449219 130.378906 C 188.40625 130.359375 188.359375 130.207031 188.382812 130.164062 C 188.96875 129.410156 189.445312 128.59375 189.785156 127.703125 C 191.109375 125.179688 191.53125 122.292969 191.945312 119.507812 C 192.378906 116.1875 192.269531 112.835938 191.964844 109.519531 C 191.835938 108.148438 191.8125 106.777344 191.835938 105.40625 C 191.390625 104.554688 191.800781 103.792969 192.746094 103.664062 C 198.21875 103.980469 203.59375 102.03125 207.554688 98.234375 C 210.140625 95.816406 212.429688 92.953125 213.417969 89.503906 C 213.789062 88.363281 214.167969 87.21875 214.363281 86.035156 C 214.441406 84.824219 214.34375 83.617188 214.253906 82.429688 Z M 209.378906 95.339844 C 205.632812 99.734375 200.085938 102.640625 194.257812 102.53125 C 194.257812 102.53125 194.257812 102.53125 194.257812 102.542969 C 193.179688 102.464844 192.007812 102.457031 191.519531 103.621094 C 190.824219 104.511719 190.988281 104.6875 191.367188 105.632812 C 191.207031 107.582031 191.519531 109.484375 191.640625 111.433594 C 191.867188 115.273438 191.703125 119.105469 190.78125 122.847656 C 190.03125 125.253906 189.316406 127.824219 187.578125 129.726562 C 187.4375 129.867188 186.992188 129.660156 187.003906 129.476562 C 187.070312 129.3125 187.199219 129.171875 187.296875 129.019531 C 188.011719 127.84375 188.707031 126.636719 189.066406 125.296875 C 190.78125 120.890625 191.109375 116.027344 190.769531 111.335938 C 190.53125 109.746094 190.476562 108.125 190.261719 106.535156 C 190.128906 106.132812 189.675781 105.808594 189.554688 105.382812 C 189.402344 102.171875 184.917969 100.574219 182.257812 99.996094 C 176.699219 99.222656 171.042969 95.96875 168.96875 90.527344 C 167.808594 87.371094 168.242188 83.824219 167.796875 80.558594 C 169.992188 83.269531 173.441406 84.140625 176.679688 84.96875 C 179.328125 85.816406 181.902344 87.066406 183.929688 89.015625 C 186.210938 91.386719 187.503906 94.542969 187.980469 97.765625 C 188.066406 99.917969 188.230469 102.171875 189.902344 103.738281 C 190.121094 103.980469 190.371094 104.097656 190.523438 103.71875 C 190.78125 103.054688 191.03125 102.390625 191.347656 101.757812 C 191.554688 100.464844 191.519531 99.136719 192 97.894531 C 192.59375 95.957031 193.660156 94.21875 195.027344 92.738281 C 200.183594 87.644531 209.71875 87.949219 212.886719 80.800781 C 215.113281 85.71875 212.820312 91.550781 209.378906 95.339844 Z M 207.121094 91.039062 C 205.101562 93.007812 202.367188 93.859375 199.890625 95.089844 C 197.578125 96.273438 195.558594 97.894531 193.800781 99.789062 C 193.714844 99.691406 193.636719 99.605469 193.550781 99.507812 C 195.09375 97.425781 197.308594 95.914062 199.5 94.597656 C 202.324219 93.257812 205.296875 92.191406 207.609375 90.003906 C 208.347656 89.875 207.273438 90.875 207.121094 91.039062 Z M 187.199219 100.332031 C 187.242188 100.441406 187.296875 100.5625 187.113281 100.59375 C 186.167969 99.84375 185.636719 98.734375 184.777344 97.90625 C 183.550781 96.578125 182.171875 95.414062 180.628906 94.46875 C 178.71875 93.183594 176.558594 92.28125 174.875 90.667969 C 174.507812 90.15625 173.59375 89.734375 173.769531 89.015625 C 175.984375 91.671875 179.339844 92.835938 182.0625 94.871094 C 184.09375 96.359375 185.710938 98.296875 187.199219 100.332031 Z M 171.53125 85.738281 C 171.988281 86.492188 172.476562 87.242188 172.910156 87.992188 C 172.867188 88.113281 172.835938 88.1875 172.8125 88.265625 C 172.304688 87.753906 171.914062 87.121094 171.566406 86.5 C 171.566406 86.316406 171.28125 85.738281 171.53125 85.738281 Z M 209.28125 88.699219 C 209.261719 88.679688 209.226562 88.65625 209.207031 88.632812 C 209.695312 88.101562 210.0625 87.480469 210.53125 86.949219 C 210.910156 87.144531 209.183594 89.648438 209.28125 88.699219 Z M 192.824219 100.714844 C 192.898438 100.984375 192.683594 101.128906 192.550781 101.300781 C 192.34375 101.574219 192.226562 101.910156 191.988281 102.160156 C 191.898438 102.117188 191.867188 101.902344 191.890625 101.890625 C 191.714844 101.542969 192.691406 100.234375 192.824219 100.714844 Z M 187.882812 101.34375 C 187.851562 101.433594 187.839844 101.488281 187.816406 101.53125 C 187.566406 101.410156 187.320312 101.050781 187.417969 100.769531 C 187.632812 100.898438 187.742188 101.148438 187.882812 101.34375 Z M 187.882812 101.34375 " fill-opacity="1" fill-rule="nonzero"/></g></svg>