<svg xmlns="http://www.w3.org/2000/svg" xmlns:xlink="http://www.w3.org/1999/xlink" width="500" zoomAndPan="magnify" viewBox="0 0 375 374.999991" height="500" preserveAspectRatio="xMidYMid meet" version="1.0"><defs><clipPath id="f4c5a2c8e9"><path d="M 67.019531 4 L 307.769531 4 L 307.769531 296 L 67.019531 296 Z M 67.019531 4 " clip-rule="nonzero"/></clipPath><clipPath id="2e7a7804c3"><path d="M 121 12 L 307.769531 12 L 307.769531 296 L 121 296 Z M 121 12 " clip-rule="nonzero"/></clipPath><clipPath id="aee600a4b4"><path d="M 161 319 L 214 319 L 214 371.359375 L 161 371.359375 Z M 161 319 " clip-rule="nonzero"/></clipPath><clipPath id="421ebdf9f5"><path d="M 139 278 L 249 278 L 249 371.359375 L 139 371.359375 Z M 139 278 " clip-rule="nonzero"/></clipPath></defs><g clip-path="url(#f4c5a2c8e9)"><path fill="#e0efdf" d="M 307.554688 124.285156 C 307.554688 155.800781 295.429688 184.476562 275.574219 205.914062 C 253.433594 229.816406 241.484375 261.402344 241.484375 293.972656 L 241.484375 295.027344 L 133.222656 295.027344 L 133.222656 293.113281 C 133.222656 274.378906 129.066406 256.117188 121.34375 239.40625 C 115.648438 227.089844 108.019531 215.617188 98.683594 205.421875 C 79.109375 184.046875 67.160156 155.578125 67.152344 124.308594 C 67.144531 58.359375 119.707031 5.019531 185.664062 4.113281 C 202 3.890625 217.601562 6.917969 231.855469 12.605469 C 276.210938 30.292969 307.554688 73.625 307.554688 124.285156 Z M 307.554688 124.285156 " fill-opacity="1" fill-rule="nonzero"/></g><g clip-path="url(#2e7a7804c3)"><path fill="#c9e0c8" d="M 307.554688 124.285156 C 307.554688 155.800781 295.429688 184.476562 275.574219 205.914062 C 253.433594 229.816406 241.484375 261.402344 241.484375 293.972656 L 241.484375 295.027344 L 133.222656 295.027344 L 133.222656 293.113281 C 133.222656 274.378906 129.066406 256.117188 121.34375 239.40625 C 124.609375 238.558594 127.84375 237.707031 131.003906 236.800781 C 185.792969 220.949219 230.679688 174.609375 244.757812 119.34375 C 255.371094 77.691406 244.519531 47.59375 231.855469 12.605469 C 276.210938 30.292969 307.554688 73.625 307.554688 124.285156 Z M 307.554688 124.285156 " fill-opacity="1" fill-rule="nonzero"/></g><path fill="#f3f9f2" d="M 86.808594 103.960938 C 86.296875 103.960938 85.78125 103.898438 85.257812 103.761719 C 82.015625 102.910156 80.078125 99.589844 80.929688 96.347656 C 85.195312 80.148438 93.75 64.660156 105.652344 51.535156 C 116.371094 39.726562 137.144531 25.042969 154.542969 21.101562 C 157.808594 20.355469 161.066406 22.410156 161.804688 25.683594 C 162.542969 28.953125 160.488281 32.207031 157.222656 32.941406 C 142.800781 36.207031 124.25 49.109375 114.652344 59.6875 C 104.046875 71.375 96.453125 85.113281 92.679688 99.429688 C 91.957031 102.15625 89.5 103.960938 86.808594 103.960938 Z M 86.808594 103.960938 " fill-opacity="1" fill-rule="nonzero"/><path fill="#accc83" d="M 246.632812 189.433594 C 232.246094 200.425781 215.488281 203.476562 203.929688 195.292969 C 192.542969 187.242188 192.609375 167.816406 209.824219 153.113281 C 227.746094 137.382812 260.703125 135.277344 275.859375 137.570312 C 280.746094 138.105469 283.304688 142.179688 281.167969 145.550781 C 274.058594 156.410156 261.058594 177.960938 246.632812 189.433594 Z M 246.632812 189.433594 " fill-opacity="1" fill-rule="nonzero"/><path fill="#95b568" d="M 248.1875 181.371094 C 232.117188 192.234375 214.003906 194.457031 202.15625 184.992188 C 199.417969 182.808594 197.398438 179.996094 196.144531 176.785156 C 195.429688 184.453125 198.257812 191.292969 203.929688 195.300781 C 215.488281 203.484375 232.246094 200.433594 246.632812 189.441406 C 260.527344 178.390625 273.089844 158 280.34375 146.8125 C 271.824219 158.289062 260.257812 172.867188 248.1875 181.371094 Z M 248.1875 181.371094 " fill-opacity="1" fill-rule="nonzero"/><path fill="#accc83" d="M 229.726562 123.9375 C 221.882812 136.183594 213.382812 144.675781 202.832031 146.179688 C 197.566406 146.886719 192.171875 145.222656 187.847656 141.148438 C 183.621094 137.0625 180.445312 130.554688 181.953125 121.308594 C 183.28125 111.730469 191.398438 100.765625 202.546875 93.011719 C 213.535156 85.082031 227.558594 80.351562 236.980469 79.195312 C 247.015625 77.96875 246.847656 85.058594 243.988281 92.414062 C 239.824219 103.085938 235.921875 114.265625 229.726562 123.9375 Z M 229.726562 123.9375 " fill-opacity="1" fill-rule="nonzero"/><path fill="#95b568" d="M 232.484375 115.269531 C 222.804688 127.789062 212.765625 136.164062 201.1875 136.777344 C 195.414062 137.039062 189.730469 134.710938 185.433594 129.871094 C 183.933594 128.140625 182.621094 126.089844 181.660156 123.722656 C 181.03125 131.699219 183.996094 137.429688 187.847656 141.148438 C 192.171875 145.230469 197.566406 146.886719 202.832031 146.183594 C 213.382812 144.675781 221.882812 136.183594 229.726562 123.9375 C 233.230469 118.46875 236.003906 112.511719 238.503906 106.441406 C 236.644531 109.492188 234.660156 112.457031 232.484375 115.269531 Z M 232.484375 115.269531 " fill-opacity="1" fill-rule="nonzero"/><path fill="#accc83" d="M 134.378906 200.789062 C 148.386719 210.152344 164.125 212.003906 174.382812 203.722656 C 184.488281 195.578125 183.273438 177.539062 166.429688 164.890625 C 148.863281 151.335938 118.132812 151.3125 104.191406 154.332031 C 99.6875 155.125 97.554688 159.050781 99.726562 162.054688 C 106.957031 171.722656 120.300781 190.976562 134.378906 200.789062 Z M 134.378906 200.789062 " fill-opacity="1" fill-rule="nonzero"/><path fill="#95b568" d="M 177.703125 177.738281 C 178.570312 184.929688 176.179688 191.492188 171.023438 195.648438 C 160.089844 204.476562 143.308594 202.5 128.367188 192.511719 C 119.882812 186.605469 111.652344 177.476562 104.707031 168.792969 C 112.277344 178.988281 123.089844 192.921875 134.371094 200.789062 C 148.378906 210.152344 164.117188 212.003906 174.375 203.722656 C 181.351562 198.105469 182.9375 187.765625 177.703125 177.738281 Z M 177.703125 177.738281 " fill-opacity="1" fill-rule="nonzero"/><path fill="#4b7043" d="M 265.539062 147.980469 C 253.695312 149.769531 242.097656 153.496094 231.425781 159.113281 C 220.757812 164.722656 211.007812 172.265625 203.125 181.554688 C 199.179688 186.1875 195.707031 191.253906 192.824219 196.652344 C 190.921875 200.226562 189.285156 203.945312 187.921875 207.765625 C 187.640625 200.28125 187.617188 192.789062 187.914062 185.304688 C 188.167969 180.035156 188.5 174.773438 189.136719 169.53125 C 189.753906 164.300781 190.527344 159.074219 191.613281 153.910156 C 193.769531 143.601562 196.945312 133.457031 201.695312 124.03125 L 202.617188 122.277344 L 203.078125 121.402344 L 203.570312 120.542969 L 204.546875 118.820312 L 205.582031 117.136719 L 206.105469 116.292969 L 206.652344 115.472656 C 207.019531 114.925781 207.371094 114.371094 207.75 113.828125 C 208.519531 112.757812 209.277344 111.675781 210.09375 110.636719 C 211.714844 108.554688 213.429688 106.542969 215.273438 104.652344 C 217.117188 102.761719 219.078125 100.980469 221.136719 99.320312 C 221.226562 99.242188 221.25 99.105469 221.175781 99.003906 C 221.097656 98.90625 220.953125 98.882812 220.851562 98.960938 C 218.730469 100.574219 216.710938 102.316406 214.789062 104.167969 C 212.875 106.027344 211.078125 108.011719 209.378906 110.070312 C 208.519531 111.089844 207.71875 112.167969 206.910156 113.226562 C 206.511719 113.765625 206.136719 114.316406 205.75 114.855469 L 205.175781 115.679688 L 204.621094 116.515625 L 203.523438 118.191406 L 202.484375 119.902344 L 201.964844 120.765625 L 200.488281 123.390625 C 195.398438 132.8125 191.894531 143.015625 189.40625 153.410156 C 188.152344 158.613281 187.222656 163.882812 186.449219 169.171875 C 185.65625 174.457031 185.164062 179.78125 184.765625 185.113281 C 184.058594 195.449219 183.964844 205.820312 184.320312 216.171875 C 183.582031 213.859375 182.765625 211.566406 181.859375 209.308594 C 178.71875 201.433594 174.34375 193.949219 168.566406 187.6875 C 165.683594 184.558594 162.464844 181.75 159 179.328125 C 155.523438 176.898438 151.804688 174.871094 147.949219 173.203125 C 144.089844 171.535156 140.09375 170.222656 136.042969 169.214844 C 131.980469 168.242188 127.867188 167.550781 123.734375 167.050781 C 123.582031 167.035156 123.441406 167.132812 123.417969 167.289062 C 123.394531 167.441406 123.496094 167.59375 123.65625 167.617188 C 127.738281 168.300781 131.78125 169.1875 135.738281 170.339844 C 139.6875 171.523438 143.539062 172.996094 147.21875 174.792969 C 150.898438 176.59375 154.394531 178.730469 157.617188 181.21875 C 160.835938 183.699219 163.769531 186.527344 166.367188 189.625 C 171.570312 195.832031 175.375 203.101562 178.019531 210.753906 C 180.554688 218.097656 181.984375 225.082031 182.183594 232.835938 C 182.296875 237.117188 182.367188 241.402344 182.4375 245.691406 C 182.613281 256.9375 182.726562 268.195312 182.828125 279.453125 C 182.921875 289.363281 182.988281 299.273438 183.066406 309.1875 C 183.089844 312.136719 183.089844 315.078125 183.136719 318.03125 C 183.195312 322.410156 183.566406 326.789062 184.226562 331.113281 C 184.234375 331.152344 184.242188 331.199219 184.25 331.230469 C 184.632812 333.234375 186.871094 334.425781 188.851562 333.351562 C 190.019531 332.71875 192.472656 331.367188 192.21875 330.046875 C 191.136719 324.375 190.566406 318.605469 190.613281 312.835938 C 190.660156 306.441406 190.71875 300.050781 190.78125 293.65625 C 190.898438 281.847656 190.421875 270.039062 190.605469 258.230469 C 190.773438 247.386719 189.699219 236.539062 190.082031 225.699219 C 190.242188 221.078125 190.265625 216.316406 191.511719 211.84375 C 192.789062 207.265625 194.460938 202.800781 196.539062 198.527344 C 199.074219 193.296875 202.199219 188.339844 205.8125 183.746094 C 213.042969 174.542969 222.210938 166.835938 232.449219 160.949219 C 242.683594 155.046875 253.980469 150.921875 265.660156 148.695312 C 265.851562 148.65625 265.984375 148.472656 265.953125 148.277344 C 265.921875 148.085938 265.738281 147.949219 265.539062 147.980469 Z M 265.539062 147.980469 " fill-opacity="1" fill-rule="nonzero"/><g clip-path="url(#aee600a4b4)"><path fill="#404443" d="M 213.175781 345.636719 C 213.175781 347.980469 212.859375 350.253906 212.269531 352.414062 C 209.292969 363.332031 199.320312 371.351562 187.453125 371.351562 C 175.597656 371.351562 165.613281 363.332031 162.640625 352.414062 C 162.050781 350.253906 161.742188 347.980469 161.742188 345.636719 C 161.742188 342.933594 162.15625 340.3125 162.941406 337.859375 C 166.238281 327.457031 175.964844 319.929688 187.453125 319.929688 C 189.152344 319.929688 190.8125 320.089844 192.425781 320.410156 C 204.253906 322.71875 213.175781 333.136719 213.175781 345.636719 Z M 213.175781 345.636719 " fill-opacity="1" fill-rule="nonzero"/></g><path fill="#404443" d="M 241.847656 286.996094 L 241.847656 310.914062 C 241.847656 330.140625 229.480469 346.472656 212.269531 352.414062 C 207.78125 353.972656 202.960938 354.8125 197.9375 354.8125 L 176.980469 354.8125 C 171.960938 354.8125 167.136719 353.972656 162.640625 352.414062 C 156.609375 350.332031 151.160156 346.972656 146.640625 342.648438 C 143.667969 339.804688 141.101562 336.554688 139.019531 332.972656 C 135.238281 326.496094 133.078125 318.960938 133.078125 310.914062 L 133.078125 286.996094 Z M 241.847656 286.996094 " fill-opacity="1" fill-rule="nonzero"/><path fill="#303534" d="M 248.898438 284.136719 L 248.898438 286.027344 C 248.898438 288.988281 246.503906 291.375 243.550781 291.375 L 131.363281 291.375 C 128.414062 291.375 126.015625 288.988281 126.015625 286.027344 L 126.015625 284.136719 C 126.015625 281.179688 128.414062 278.789062 131.363281 278.789062 L 243.550781 278.789062 C 246.503906 278.789062 248.898438 281.179688 248.898438 284.136719 Z M 248.898438 284.136719 " fill-opacity="1" fill-rule="nonzero"/><g clip-path="url(#421ebdf9f5)"><path fill="#303534" d="M 248.898438 284.136719 L 248.898438 286.027344 C 248.898438 288.988281 246.503906 291.375 243.550781 291.375 L 241.839844 291.375 L 241.839844 310.914062 C 241.839844 330.140625 229.472656 346.472656 212.261719 352.414062 C 209.285156 363.332031 199.3125 371.351562 187.445312 371.351562 C 175.589844 371.351562 165.605469 363.332031 162.632812 352.414062 C 156.601562 350.332031 151.152344 346.972656 146.632812 342.648438 C 143.660156 339.804688 141.09375 336.554688 139.011719 332.972656 C 145.210938 331.460938 151.261719 329.339844 157.0625 326.671875 C 173.898438 318.929688 188.644531 306.628906 199.179688 291.375 C 199.566406 290.824219 199.949219 290.261719 200.320312 289.699219 C 200.871094 288.863281 201.394531 287.957031 201.894531 286.996094 C 203.214844 284.46875 204.40625 281.59375 205.675781 278.789062 L 243.542969 278.789062 C 246.503906 278.789062 248.898438 281.179688 248.898438 284.136719 Z M 248.898438 284.136719 " fill-opacity="1" fill-rule="nonzero"/></g></svg>