<svg xmlns="http://www.w3.org/2000/svg" xmlns:xlink="http://www.w3.org/1999/xlink" width="500" zoomAndPan="magnify" viewBox="0 0 375 374.999991" height="500" preserveAspectRatio="xMidYMid meet" version="1.0"><defs><clipPath id="8ddda3940a"><path d="M 40 27 L 350.25 27 L 350.25 337.730469 L 40 337.730469 Z M 40 27 " clip-rule="nonzero"/></clipPath></defs><g clip-path="url(#8ddda3940a)"><path fill="#000000" d="M 69.472656 255.636719 C 70.8125 257.949219 70.042969 260.910156 67.726562 262.253906 C 66.957031 262.703125 66.128906 262.914062 65.296875 262.914062 C 63.640625 262.914062 62.011719 262.050781 61.097656 260.507812 C 44.464844 231.945312 37.492188 199.4375 40.980469 166.496094 C 45.292969 125.359375 65.414062 88.371094 97.621094 62.347656 C 129.800781 36.324219 170.210938 24.378906 211.417969 28.703125 C 239.027344 31.609375 265.003906 41.691406 287.121094 58.007812 L 283.777344 46.25 C 283.035156 43.679688 284.523438 41 287.09375 40.265625 C 289.664062 39.535156 292.351562 41.023438 293.09375 43.59375 L 300.695312 70.207031 C 301.097656 71.636719 300.839844 73.175781 299.953125 74.378906 C 299.066406 75.585938 297.695312 76.316406 296.210938 76.371094 L 268.519531 77.363281 C 268.460938 77.367188 268.402344 77.367188 268.347656 77.367188 C 265.746094 77.367188 263.574219 75.3125 263.488281 72.703125 C 263.402344 70.03125 265.488281 67.789062 268.148438 67.691406 L 283.179688 67.152344 C 262.058594 51.058594 237.054688 41.132812 210.390625 38.328125 C 171.78125 34.269531 133.886719 45.472656 103.707031 69.871094 C 73.527344 94.269531 54.667969 128.945312 50.609375 167.507812 C 47.351562 198.390625 53.867188 228.871094 69.472656 255.636719 Z M 350.25 183.738281 L 350.25 181.355469 C 350.054688 154.503906 342.914062 128.371094 329.246094 104.90625 C 327.902344 102.597656 324.929688 101.8125 322.617188 103.15625 C 320.300781 104.503906 319.53125 107.46875 320.871094 109.777344 C 336.476562 136.542969 342.992188 167.015625 339.734375 197.90625 C 331.363281 277.511719 259.6875 335.464844 179.953125 327.082031 C 153.320312 324.277344 128.285156 314.347656 107.164062 298.261719 L 122.199219 297.722656 C 124.855469 297.625 126.941406 295.382812 126.855469 292.707031 C 126.769531 290.042969 124.542969 287.945312 121.828125 288.050781 L 94.136719 289.042969 C 92.648438 289.097656 91.277344 289.828125 90.390625 291.03125 C 89.503906 292.238281 89.25 293.773438 89.648438 295.207031 L 97.25 321.816406 C 97.878906 323.949219 99.820312 325.335938 101.90625 325.335938 C 102.363281 325.335938 102.820312 325.269531 103.25 325.144531 C 105.824219 324.414062 107.308594 321.734375 106.59375 319.160156 L 103.222656 307.410156 C 125.34375 323.71875 151.320312 333.808594 178.925781 336.703125 C 184.46875 337.292969 189.984375 337.574219 195.472656 337.574219 C 230.824219 337.574219 264.859375 325.601562 292.722656 303.066406 C 324.929688 277.039062 345.050781 240.054688 349.394531 198.917969 C 349.925781 193.84375 350.210938 188.78125 350.25 183.738281 Z M 128.25 227.585938 C 128.25 227.585938 136.507812 212.15625 136.535156 212.148438 C 138.542969 208.371094 137.074219 203.453125 133.277344 201.445312 C 129.476562 199.410156 124.597656 200.890625 122.5625 204.683594 L 114.304688 220.089844 C 112.242188 223.941406 113.707031 228.746094 117.539062 230.800781 C 121.398438 232.851562 126.183594 231.410156 128.25 227.585938 Z M 83.339844 170.796875 C 90.96875 174.234375 105.179688 180.628906 107.785156 181.636719 C 114.304688 184.160156 116.132812 190.167969 117.179688 195.265625 C 122.683594 190.117188 131.0625 188.765625 138.0625 192.507812 C 142.28125 194.757812 145.390625 198.542969 146.800781 203.160156 C 147.097656 204.125 147.308594 205.101562 147.425781 206.074219 C 151.496094 205.304688 155.625 205.925781 159.304688 207.882812 C 163.523438 210.128906 166.636719 213.917969 168.042969 218.539062 C 168.074219 218.65625 168.101562 218.769531 168.132812 218.882812 C 168.25 218.851562 168.34375 218.8125 168.460938 218.78125 C 173.097656 217.382812 177.976562 217.855469 182.222656 220.125 C 186.441406 222.371094 189.554688 226.160156 190.960938 230.78125 C 190.992188 230.898438 191.019531 231.007812 191.050781 231.125 C 191.171875 231.09375 191.261719 231.054688 191.378906 231.023438 C 196.015625 229.625 200.894531 230.097656 205.144531 232.367188 C 207.179688 233.449219 208.941406 234.894531 210.410156 236.617188 L 230.035156 247.457031 C 233.867188 249.5625 238.714844 248.164062 240.808594 244.34375 C 242.902344 240.554688 241.464844 235.726562 237.636719 233.570312 L 209.898438 217.976562 C 207.445312 216.605469 206.578125 213.519531 207.953125 211.082031 C 209.332031 208.640625 212.414062 207.773438 214.867188 209.148438 L 249.960938 228.734375 C 253.792969 230.832031 258.609375 229.433594 260.734375 225.617188 C 262.796875 221.828125 261.390625 216.996094 257.5625 214.839844 C 257.441406 214.777344 229.828125 199.175781 229.828125 199.175781 C 227.375 197.796875 226.503906 194.703125 227.882812 192.269531 C 229.257812 189.835938 232.371094 188.972656 234.824219 190.351562 L 267.015625 208.527344 C 268.8125 209.535156 270.90625 209.765625 272.910156 209.195312 C 275.007812 208.601562 276.710938 207.25 277.730469 205.378906 C 279.824219 201.617188 278.386719 196.777344 274.558594 194.597656 L 229.585938 169.011719 C 222.105469 164.746094 212.621094 168.570312 201.671875 173.003906 C 193.355469 176.367188 184.019531 180.136719 174.5625 180.136719 C 164.898438 180.136719 155.117188 176.191406 146.109375 163.820312 C 145.273438 162.65625 144.972656 161.1875 145.273438 159.78125 C 145.570312 158.375 146.4375 157.164062 147.695312 156.445312 C 161.011719 148.835938 172.199219 140.503906 180.9375 131.679688 C 183 129.59375 185.097656 127.652344 187.191406 125.871094 C 177.734375 121.882812 169.597656 123.800781 161.070312 125.808594 C 152.421875 127.847656 143.476562 129.960938 134.261719 124.878906 L 109.160156 113.3125 L 82.320312 170.34375 C 82.652344 170.488281 82.980469 170.636719 83.339844 170.796875 Z M 199.128906 129.476562 C 195.480469 131.996094 191.800781 135.136719 188.148438 138.808594 C 179.921875 147.105469 169.777344 154.953125 157.898438 162.191406 C 170.015625 174.878906 183.003906 169.613281 197.871094 163.613281 C 205.953125 160.347656 214.210938 157.007812 222.257812 157.007812 C 226.445312 157.007812 230.605469 157.914062 234.613281 160.207031 L 279.585938 185.792969 C 281.5 186.878906 283.117188 188.269531 284.492188 189.859375 L 308.308594 179.722656 L 285.0625 119.890625 L 267.226562 129.429688 C 257.714844 134.367188 248.738281 130.703125 240.0625 127.160156 C 228.453125 122.421875 216.453125 117.519531 199.128906 129.476562 Z M 221.421875 254.292969 L 221.332031 254.242188 L 214.539062 250.511719 C 214.269531 252.683594 213.613281 254.804688 212.5625 256.785156 L 208.136719 265.046875 L 213.789062 268.160156 C 217.621094 270.265625 222.46875 268.867188 224.5625 265.039062 C 226.65625 261.234375 225.25 256.40625 221.421875 254.292969 Z M 195.6875 266.78125 C 195.6875 266.78125 203.589844 252.027344 203.589844 252.007812 C 205.621094 248.265625 204.125 243.304688 200.355469 241.304688 C 196.558594 239.28125 191.648438 240.765625 189.644531 244.542969 L 181.714844 259.320312 C 179.652344 263.171875 181.117188 267.972656 184.976562 270.03125 C 188.808594 272.089844 193.625 270.632812 195.6875 266.78125 Z M 171.632812 256.65625 C 171.632812 256.65625 180.667969 239.777344 180.667969 239.765625 C 182.703125 235.996094 181.207031 231.074219 177.4375 229.0625 C 173.636719 227.039062 168.730469 228.515625 166.695312 232.304688 L 157.660156 249.1875 C 155.625 253.039062 157.0625 257.839844 160.921875 259.898438 C 164.691406 261.921875 169.628906 260.429688 171.632812 256.65625 Z M 146.589844 248.402344 C 146.589844 248.402344 157.75 227.539062 157.75 227.527344 C 159.785156 223.746094 158.320312 218.832031 154.519531 216.816406 C 150.75 214.8125 145.84375 216.273438 143.808594 220.027344 L 132.617188 240.941406 C 130.554688 244.785156 132.019531 249.59375 135.847656 251.652344 C 137.703125 252.640625 139.859375 252.84375 141.894531 252.226562 C 143.925781 251.613281 145.601562 250.253906 146.589844 248.402344 Z M 146.589844 248.402344 " fill-opacity="1" fill-rule="evenodd"/></g></svg>