<svg xmlns="http://www.w3.org/2000/svg" xmlns:xlink="http://www.w3.org/1999/xlink" width="500" zoomAndPan="magnify" viewBox="0 0 375 374.999991" height="500" preserveAspectRatio="xMidYMid meet" version="1.0"><defs><g/><clipPath id="50a24eabe9"><path d="M 94 127.167969 L 121 127.167969 L 121 153 L 94 153 Z M 94 127.167969 " clip-rule="nonzero"/></clipPath><clipPath id="99a4f25260"><path d="M 285.21875 183.132812 L 336.816406 183.132812 L 336.816406 237.417969 L 285.21875 237.417969 Z M 285.21875 183.132812 " clip-rule="nonzero"/></clipPath><clipPath id="d65789fc73"><path d="M 285.21875 193 L 327.949219 193 L 327.949219 237.417969 L 285.21875 237.417969 Z M 285.21875 193 " clip-rule="nonzero"/></clipPath></defs><path fill="#537430" d="M 41.375 222.621094 C 41.375 222.621094 43.144531 220.152344 45.449219 217.527344 C 47.734375 214.832031 50.503906 212.175781 51.835938 209.644531 C 54.417969 204.550781 56.023438 200.605469 52.550781 196.777344 C 50.820312 194.964844 48.59375 194.53125 46.128906 195.632812 C 43.683594 196.714844 41.050781 199.332031 39.113281 203.144531 C 37.097656 206.964844 37.242188 212.421875 38.414062 216.28125 C 38.976562 218.234375 39.726562 219.835938 40.328125 220.921875 C 40.953125 222.019531 41.375 222.621094 41.375 222.621094 " fill-opacity="1" fill-rule="nonzero"/><path fill="#537430" d="M 13.996094 181.09375 C 13.996094 181.09375 17.035156 181.15625 20.523438 180.882812 C 24.050781 180.671875 27.835938 180.042969 30.667969 180.492188 C 36.296875 181.476562 40.421875 182.554688 41.414062 187.625 C 41.828125 190.097656 40.84375 192.132812 38.488281 193.445312 C 36.152344 194.753906 32.480469 195.296875 28.257812 194.566406 C 23.988281 193.890625 19.703125 190.507812 17.304688 187.257812 C 16.078125 185.640625 15.246094 184.082031 14.726562 182.949219 C 14.226562 181.792969 13.996094 181.09375 13.996094 181.09375 " fill-opacity="1" fill-rule="nonzero"/><path fill="#a5bf1e" d="M 3.554688 219.9375 C 3.554688 219.9375 6.179688 216.941406 8.851562 213.210938 C 11.609375 209.492188 14.171875 205.164062 17.011719 202.699219 C 22.753906 197.878906 27.316406 194.652344 33.253906 197.929688 C 36.089844 199.597656 37.3125 202.308594 36.640625 205.78125 C 35.992188 209.226562 33.433594 213.367188 29.140625 216.984375 C 24.855469 220.703125 17.835938 222.152344 12.550781 221.816406 C 9.882812 221.6875 7.609375 221.207031 6.035156 220.769531 C 4.453125 220.296875 3.554688 219.9375 3.554688 219.9375 " fill-opacity="1" fill-rule="nonzero"/><path fill="#537430" d="M 87.550781 131.558594 C 87.550781 131.558594 86.433594 133.980469 84.878906 136.628906 C 83.355469 139.335938 81.40625 142.082031 80.675781 144.488281 C 79.292969 149.3125 78.5625 152.980469 82.191406 155.707031 C 83.988281 156.988281 85.976562 156.992188 87.921875 155.632812 C 89.855469 154.296875 91.691406 151.605469 92.734375 147.992188 C 93.839844 144.359375 92.808594 139.675781 91.15625 136.539062 C 90.347656 134.945312 89.433594 133.691406 88.734375 132.847656 C 88.015625 132.007812 87.550781 131.558594 87.550781 131.558594 " fill-opacity="1" fill-rule="nonzero"/><path fill="#537430" d="M 126.410156 176.691406 C 126.410156 176.691406 123.066406 175.554688 119.105469 174.625 C 115.117188 173.617188 110.703125 172.980469 107.726562 171.484375 C 101.832031 168.40625 97.644531 165.761719 98.332031 159.796875 C 98.742188 156.910156 100.558594 154.996094 103.632812 154.375 C 106.679688 153.746094 110.941406 154.441406 115.359375 156.738281 C 119.855469 158.992188 123.414062 164.25 124.917969 168.695312 C 125.710938 170.921875 126.082031 172.945312 126.253906 174.378906 C 126.402344 175.839844 126.410156 176.691406 126.410156 176.691406 " fill-opacity="1" fill-rule="nonzero"/><g clip-path="url(#50a24eabe9)"><path fill="#a5bf1e" d="M 120.632812 127.617188 C 120.632812 127.617188 118.863281 130.640625 117.179688 134.296875 C 115.414062 137.964844 113.917969 142.125 111.878906 144.71875 C 107.722656 149.828125 104.320312 153.371094 98.65625 151.523438 C 95.925781 150.550781 94.429688 148.417969 94.429688 145.308594 C 94.417969 142.226562 95.9375 138.230469 99.046875 134.394531 C 102.125 130.480469 107.941406 128.066406 112.558594 127.484375 C 114.882812 127.15625 116.925781 127.195312 118.355469 127.3125 C 119.800781 127.457031 120.632812 127.617188 120.632812 127.617188 " fill-opacity="1" fill-rule="nonzero"/></g><path fill="#5f2e15" d="M 297.226562 206.28125 C 291.304688 210.792969 173.511719 209.480469 158.835938 206.117188 C 158.09375 205.945312 151.851562 205.253906 151.09375 205.199219 C 149.355469 205.0625 147.636719 204.765625 145.898438 204.546875 L 142.648438 204.113281 C 141.570312 203.945312 140.515625 203.660156 139.445312 203.445312 L 136.246094 202.75 C 135.175781 202.527344 134.109375 202.300781 133.058594 201.988281 C 130.945312 201.425781 128.847656 200.769531 126.757812 200.105469 C 121.5 198.398438 116.316406 196.449219 111.210938 194.554688 C 110.394531 193.890625 109.328125 193.105469 107.945312 192.140625 C 106.054688 190.796875 103.542969 189.140625 100.617188 186.722656 C 99.164062 185.511719 97.648438 184.109375 96.257812 182.554688 C 94.875 180.984375 93.597656 179.195312 92.539062 177.265625 C 91.507812 175.332031 90.683594 173.261719 90.253906 171.167969 C 89.828125 169.085938 89.722656 166.972656 90.03125 165.03125 C 90.609375 161.144531 92.722656 157.976562 94.644531 156.226562 C 96.566406 154.421875 98.214844 153.789062 98.097656 153.347656 C 98.046875 153.003906 96.074219 152.839844 93.300781 154.351562 C 90.566406 155.820312 87.308594 159.203125 85.9375 164.132812 C 85.246094 166.558594 85.09375 169.257812 85.398438 171.941406 C 85.707031 174.625 86.535156 177.261719 87.648438 179.699219 C 88.789062 182.125 90.226562 184.359375 91.828125 186.3125 C 92.542969 187.171875 93.28125 187.960938 94.019531 188.703125 C 92.816406 188.355469 91.621094 188.019531 90.433594 187.710938 C 86.546875 186.710938 82.738281 185.992188 79.089844 185.558594 C 75.441406 185.117188 71.953125 184.964844 68.699219 185.039062 C 65.445312 185.125 62.429688 185.511719 59.726562 186.003906 C 54.3125 187.082031 50.203125 188.859375 47.601562 190.390625 C 46.28125 191.125 45.347656 191.839844 44.746094 192.359375 C 44.144531 192.875 43.871094 193.210938 43.957031 193.351562 C 44.042969 193.492188 44.480469 193.433594 45.222656 193.207031 C 45.964844 192.976562 47.011719 192.558594 48.394531 192.132812 C 51.125 191.226562 55.144531 190.125 60.246094 189.667969 C 62.804688 189.480469 65.613281 189.386719 68.640625 189.570312 C 71.664062 189.757812 74.894531 190.15625 78.269531 190.808594 C 85.027344 192.070312 92.265625 194.519531 99.894531 197.617188 C 107.53125 200.679688 115.539062 204.375 124.175781 207.550781 C 126.339844 208.335938 128.53125 209.105469 130.777344 209.789062 C 131.886719 210.160156 133.03125 210.449219 134.179688 210.734375 L 137.621094 211.597656 C 138.773438 211.875 139.917969 212.210938 141.082031 212.429688 L 144.589844 213.011719 C 146.925781 213.382812 149.257812 213.863281 151.621094 213.984375 C 161.789062 216.214844 292.265625 217.847656 297.226562 213.496094 L 297.226562 206.28125 " fill-opacity="1" fill-rule="nonzero"/><g clip-path="url(#99a4f25260)"><path fill="#537430" d="M 286.457031 237.417969 L 336.816406 209.535156 L 285.570312 183.308594 Z M 286.457031 237.417969 " fill-opacity="1" fill-rule="nonzero"/></g><g clip-path="url(#d65789fc73)"><path fill="#a5bf1e" d="M 286.457031 237.417969 L 327.535156 214.671875 L 285.734375 193.28125 Z M 286.457031 237.417969 " fill-opacity="1" fill-rule="nonzero"/></g><g fill="#333333" fill-opacity="1"><g transform="translate(128.954249, 182.969513)"><g><path d="M 27.25 0.8125 C 22.882812 0.8125 18.601562 0.0625 14.40625 -1.4375 C 10.207031 -2.9375 6.390625 -5.238281 2.953125 -8.34375 L 10.390625 -17.265625 C 13.015625 -15.140625 15.703125 -13.445312 18.453125 -12.1875 C 21.210938 -10.9375 24.226562 -10.3125 27.5 -10.3125 C 30.113281 -10.3125 32.144531 -10.785156 33.59375 -11.734375 C 35.039062 -12.691406 35.765625 -14.019531 35.765625 -15.71875 L 35.765625 -15.875 C 35.765625 -16.695312 35.613281 -17.421875 35.3125 -18.046875 C 35.007812 -18.671875 34.4375 -19.253906 33.59375 -19.796875 C 32.75 -20.347656 31.578125 -20.894531 30.078125 -21.4375 C 28.578125 -21.988281 26.625 -22.5625 24.21875 -23.15625 C 21.332031 -23.863281 18.710938 -24.65625 16.359375 -25.53125 C 14.015625 -26.40625 12.023438 -27.484375 10.390625 -28.765625 C 8.753906 -30.046875 7.484375 -31.640625 6.578125 -33.546875 C 5.679688 -35.460938 5.234375 -37.835938 5.234375 -40.671875 L 5.234375 -40.84375 C 5.234375 -43.457031 5.722656 -45.816406 6.703125 -47.921875 C 7.691406 -50.023438 9.070312 -51.835938 10.84375 -53.359375 C 12.613281 -54.890625 14.726562 -56.0625 17.1875 -56.875 C 19.644531 -57.695312 22.347656 -58.109375 25.296875 -58.109375 C 29.492188 -58.109375 33.351562 -57.476562 36.875 -56.21875 C 40.394531 -54.96875 43.625 -53.171875 46.5625 -50.828125 L 40.015625 -41.328125 C 37.453125 -43.078125 34.941406 -44.457031 32.484375 -45.46875 C 30.035156 -46.476562 27.582031 -46.984375 25.125 -46.984375 C 22.664062 -46.984375 20.820312 -46.503906 19.59375 -45.546875 C 18.375 -44.585938 17.765625 -43.398438 17.765625 -41.984375 L 17.765625 -41.828125 C 17.765625 -40.898438 17.941406 -40.09375 18.296875 -39.40625 C 18.648438 -38.726562 19.289062 -38.113281 20.21875 -37.5625 C 21.144531 -37.019531 22.410156 -36.503906 24.015625 -36.015625 C 25.628906 -35.523438 27.664062 -34.953125 30.125 -34.296875 C 33.007812 -33.523438 35.582031 -32.660156 37.84375 -31.703125 C 40.113281 -30.753906 42.023438 -29.609375 43.578125 -28.265625 C 45.140625 -26.929688 46.3125 -25.363281 47.09375 -23.5625 C 47.882812 -21.769531 48.28125 -19.617188 48.28125 -17.109375 L 48.28125 -16.9375 C 48.28125 -14.101562 47.757812 -11.582031 46.71875 -9.375 C 45.6875 -7.164062 44.242188 -5.3125 42.390625 -3.8125 C 40.535156 -2.3125 38.328125 -1.164062 35.765625 -0.375 C 33.203125 0.414062 30.363281 0.8125 27.25 0.8125 Z M 27.25 0.8125 "/></g></g></g><g fill="#333333" fill-opacity="1"><g transform="translate(181.326758, 182.969513)"><g><path d="M 5.8125 -59.75 L 18.90625 -59.75 L 18.90625 -48.703125 L 5.8125 -48.703125 Z M 6.140625 -43.875 L 18.578125 -43.875 L 18.578125 0 L 6.140625 0 Z M 6.140625 -43.875 "/></g></g></g><g fill="#333333" fill-opacity="1"><g transform="translate(206.040033, 182.969513)"><g><path d="M 25.203125 13.265625 C 21.609375 13.265625 18.171875 12.867188 14.890625 12.078125 C 11.617188 11.285156 8.59375 10.148438 5.8125 8.671875 L 10.0625 -0.65625 C 12.351562 0.601562 14.660156 1.585938 16.984375 2.296875 C 19.304688 3.003906 21.9375 3.359375 24.875 3.359375 C 29.132812 3.359375 32.285156 2.347656 34.328125 0.328125 C 36.378906 -1.691406 37.40625 -4.664062 37.40625 -8.59375 L 37.40625 -10.71875 C 35.550781 -8.476562 33.53125 -6.726562 31.34375 -5.46875 C 29.164062 -4.21875 26.410156 -3.59375 23.078125 -3.59375 C 20.515625 -3.59375 18.054688 -4.039062 15.703125 -4.9375 C 13.359375 -5.84375 11.285156 -7.171875 9.484375 -8.921875 C 7.691406 -10.671875 6.257812 -12.8125 5.1875 -15.34375 C 4.125 -17.882812 3.59375 -20.789062 3.59375 -24.0625 L 3.59375 -24.21875 C 3.59375 -27.5 4.140625 -30.40625 5.234375 -32.9375 C 6.328125 -35.476562 7.773438 -37.617188 9.578125 -39.359375 C 11.378906 -41.109375 13.453125 -42.429688 15.796875 -43.328125 C 18.140625 -44.234375 20.566406 -44.6875 23.078125 -44.6875 C 26.460938 -44.6875 29.242188 -44.054688 31.421875 -42.796875 C 33.609375 -41.546875 35.546875 -39.992188 37.234375 -38.140625 L 37.234375 -43.875 L 49.671875 -43.875 L 49.671875 -9.90625 C 49.671875 -2.101562 47.816406 3.648438 44.109375 7.359375 C 42.035156 9.429688 39.429688 10.929688 36.296875 11.859375 C 33.160156 12.796875 29.460938 13.265625 25.203125 13.265625 Z M 26.6875 -13.90625 C 28.207031 -13.90625 29.625 -14.148438 30.9375 -14.640625 C 32.25 -15.140625 33.378906 -15.835938 34.328125 -16.734375 C 35.285156 -17.640625 36.035156 -18.71875 36.578125 -19.96875 C 37.128906 -21.226562 37.40625 -22.59375 37.40625 -24.0625 L 37.40625 -24.21875 C 37.40625 -25.695312 37.128906 -27.0625 36.578125 -28.3125 C 36.035156 -29.570312 35.285156 -30.648438 34.328125 -31.546875 C 33.378906 -32.453125 32.25 -33.148438 30.9375 -33.640625 C 29.625 -34.128906 28.207031 -34.375 26.6875 -34.375 C 25.15625 -34.375 23.75 -34.128906 22.46875 -33.640625 C 21.1875 -33.148438 20.066406 -32.453125 19.109375 -31.546875 C 18.148438 -30.648438 17.398438 -29.570312 16.859375 -28.3125 C 16.316406 -27.0625 16.046875 -25.695312 16.046875 -24.21875 L 16.046875 -24.0625 C 16.046875 -21.007812 17.050781 -18.550781 19.0625 -16.6875 C 21.082031 -14.832031 23.625 -13.90625 26.6875 -13.90625 Z M 26.6875 -13.90625 "/></g></g></g><g fill="#333333" fill-opacity="1"><g transform="translate(261.276666, 182.969513)"><g><path d="M 5.5625 -43.875 L 18 -43.875 L 18 -37.640625 C 18.707031 -38.578125 19.484375 -39.46875 20.328125 -40.3125 C 21.179688 -41.15625 22.125 -41.90625 23.15625 -42.5625 C 24.195312 -43.21875 25.34375 -43.734375 26.59375 -44.109375 C 27.851562 -44.492188 29.273438 -44.6875 30.859375 -44.6875 C 35.597656 -44.6875 39.265625 -43.238281 41.859375 -40.34375 C 44.453125 -37.457031 45.75 -33.476562 45.75 -28.40625 L 45.75 0 L 33.3125 0 L 33.3125 -24.46875 C 33.3125 -27.414062 32.65625 -29.640625 31.34375 -31.140625 C 30.03125 -32.640625 28.175781 -33.390625 25.78125 -33.390625 C 23.375 -33.390625 21.472656 -32.640625 20.078125 -31.140625 C 18.691406 -29.640625 18 -27.414062 18 -24.46875 L 18 0 L 5.5625 0 Z M 5.5625 -43.875 "/></g></g></g><g fill="#333333" fill-opacity="1"><g transform="translate(128.9465, 280.471902)"><g><path d="M 30.765625 0.90625 C 23.078125 0.90625 17.019531 -1.222656 12.59375 -5.484375 C 8.175781 -9.742188 5.96875 -16.097656 5.96875 -24.546875 L 5.96875 -57.296875 L 18.578125 -57.296875 L 18.578125 -24.875 C 18.578125 -20.1875 19.664062 -16.65625 21.84375 -14.28125 C 24.03125 -11.90625 27.0625 -10.71875 30.9375 -10.71875 C 34.8125 -10.71875 37.835938 -11.863281 40.015625 -14.15625 C 42.203125 -16.445312 43.296875 -19.882812 43.296875 -24.46875 L 43.296875 -57.296875 L 55.90625 -57.296875 L 55.90625 -24.96875 C 55.90625 -20.601562 55.316406 -16.804688 54.140625 -13.578125 C 52.960938 -10.359375 51.28125 -7.671875 49.09375 -5.515625 C 46.914062 -3.367188 44.269531 -1.757812 41.15625 -0.6875 C 38.050781 0.375 34.585938 0.90625 30.765625 0.90625 Z M 30.765625 0.90625 "/></g></g></g><g fill="#333333" fill-opacity="1"><g transform="translate(190.811529, 280.471902)"><g><path d="M 5.5625 -43.875 L 18 -43.875 L 18 -37.5625 C 19.53125 -39.632812 21.375 -41.335938 23.53125 -42.671875 C 25.6875 -44.015625 28.398438 -44.6875 31.671875 -44.6875 C 34.234375 -44.6875 36.710938 -44.191406 39.109375 -43.203125 C 41.515625 -42.222656 43.644531 -40.765625 45.5 -38.828125 C 47.351562 -36.890625 48.835938 -34.515625 49.953125 -31.703125 C 51.078125 -28.898438 51.640625 -25.671875 51.640625 -22.015625 L 51.640625 -21.859375 C 51.640625 -18.203125 51.078125 -14.96875 49.953125 -12.15625 C 48.835938 -9.34375 47.363281 -6.96875 45.53125 -5.03125 C 43.707031 -3.09375 41.597656 -1.632812 39.203125 -0.65625 C 36.804688 0.320312 34.296875 0.8125 31.671875 0.8125 C 28.347656 0.8125 25.609375 0.160156 23.453125 -1.140625 C 21.296875 -2.453125 19.476562 -3.984375 18 -5.734375 L 18 13.09375 L 5.5625 13.09375 Z M 28.484375 -9.734375 C 29.953125 -9.734375 31.328125 -10.019531 32.609375 -10.59375 C 33.890625 -11.164062 35.019531 -11.984375 36 -13.046875 C 36.988281 -14.117188 37.769531 -15.390625 38.34375 -16.859375 C 38.914062 -18.328125 39.203125 -19.992188 39.203125 -21.859375 L 39.203125 -22.015625 C 39.203125 -23.816406 38.914062 -25.46875 38.34375 -26.96875 C 37.769531 -28.46875 36.988281 -29.75 36 -30.8125 C 35.019531 -31.875 33.890625 -32.691406 32.609375 -33.265625 C 31.328125 -33.835938 29.953125 -34.125 28.484375 -34.125 C 27.003906 -34.125 25.625 -33.835938 24.34375 -33.265625 C 23.0625 -32.691406 21.941406 -31.875 20.984375 -30.8125 C 20.035156 -29.75 19.273438 -28.46875 18.703125 -26.96875 C 18.128906 -25.46875 17.84375 -23.816406 17.84375 -22.015625 L 17.84375 -21.859375 C 17.84375 -20.054688 18.128906 -18.40625 18.703125 -16.90625 C 19.273438 -15.40625 20.035156 -14.117188 20.984375 -13.046875 C 21.941406 -11.984375 23.0625 -11.164062 24.34375 -10.59375 C 25.625 -10.019531 27.003906 -9.734375 28.484375 -9.734375 Z M 28.484375 -9.734375 "/></g></g></g></svg>