<svg xmlns="http://www.w3.org/2000/svg" xmlns:xlink="http://www.w3.org/1999/xlink" width="500" zoomAndPan="magnify" viewBox="0 0 375 374.999991" height="500" preserveAspectRatio="xMidYMid meet" version="1.0"><defs><clipPath id="a0c767d6fa"><path d="M 32.964844 19.34375 L 346.464844 19.34375 L 346.464844 350.84375 L 32.964844 350.84375 Z M 32.964844 19.34375 " clip-rule="nonzero"/></clipPath></defs><g clip-path="url(#a0c767d6fa)"><path fill="#000000" d="M 188.890625 245.414062 L 173.277344 239.476562 L 122.554688 290.300781 C 118.546875 294.15625 113.386719 296.25 107.96875 296.25 L 53.585938 296.25 C 42.203125 296.25 32.945312 286.972656 32.945312 275.570312 C 32.945312 264.167969 42.203125 254.894531 53.585938 254.894531 L 99.320312 254.894531 L 150.179688 204.039062 L 176.246094 131.964844 L 143.054688 134.53125 L 110.316406 171.339844 C 102.773438 179.652344 89.257812 180.261719 81.152344 172.980469 C 77.042969 169.324219 74.59375 164.269531 74.289062 158.75 C 73.984375 153.230469 75.835938 147.949219 79.515625 143.863281 L 117.742188 100.878906 C 121.34375 96.84375 126.222656 94.398438 131.503906 93.992188 C 158.167969 94.019531 190.0625 94.742188 208.976562 95.53125 C 210.089844 95.195312 212.707031 95.617188 213.84375 96.605469 C 218.789062 98.425781 230.234375 103.121094 257.679688 115.222656 L 290.941406 95.15625 C 295.648438 92.292969 301.179688 91.457031 306.554688 92.78125 C 311.894531 94.117188 316.410156 97.453125 319.277344 102.191406 C 322.132812 106.917969 322.980469 112.472656 321.648438 117.835938 C 320.328125 123.183594 316.996094 127.710938 312.265625 130.582031 C 312.265625 130.582031 312.265625 130.582031 312.253906 130.582031 L 268.640625 156.847656 C 262.195312 160.828125 254.101562 160.863281 247.5625 156.972656 L 246.832031 156.5625 L 217.410156 139.257812 L 194.34375 203.222656 L 220.003906 213.019531 C 229.578125 216.582031 235.019531 226.5 232.933594 236.589844 L 212.328125 334.308594 C 210.320312 343.820312 201.863281 350.722656 192.222656 350.722656 C 190.855469 350.722656 189.367188 350.585938 188 350.316406 C 176.8125 347.960938 169.652344 336.957031 171.992188 325.78125 Z M 310.472656 127.609375 L 310.5625 127.609375 Z M 187.492188 54.785156 C 187.492188 35.308594 203.308594 19.460938 222.75 19.460938 C 242.191406 19.460938 257.996094 35.308594 257.996094 54.785156 C 257.996094 101.550781 187.492188 101.4375 187.492188 54.785156 Z M 307.953125 253.945312 C 286.71875 253.945312 269.433594 236.625 269.433594 215.351562 C 269.433594 194.074219 286.71875 176.757812 307.953125 176.757812 C 329.203125 176.757812 346.488281 194.074219 346.488281 215.351562 C 346.488281 236.625 329.203125 253.945312 307.953125 253.945312 Z M 307.953125 253.945312 " fill-opacity="1" fill-rule="nonzero"/></g></svg>