<svg xmlns="http://www.w3.org/2000/svg" xmlns:xlink="http://www.w3.org/1999/xlink" width="500" zoomAndPan="magnify" viewBox="0 0 375 374.999991" height="500" preserveAspectRatio="xMidYMid meet" version="1.0"><defs><clipPath id="b93938543a"><path d="M 25.410156 31.753906 L 342 31.753906 L 342 348.253906 L 25.410156 348.253906 Z M 25.410156 31.753906 " clip-rule="nonzero"/></clipPath></defs><path fill="#000000" d="M 297.765625 132.882812 L 242.570312 184.714844 L 278.625 305.519531 L 305.269531 278.863281 Z M 297.765625 132.882812 " fill-opacity="1" fill-rule="nonzero"/><g clip-path="url(#b93938543a)"><path fill="#000000" d="M 312.144531 31.753906 C 304.320312 31.753906 296.8125 34.820312 291.207031 40.429688 L 115.371094 228.296875 C 113.890625 229.988281 111.5625 230.730469 109.238281 230.203125 C 107.121094 229.671875 105.324219 228.085938 104.585938 225.863281 C 103.949219 223.75 104.480469 221.316406 106.066406 219.625 L 116.957031 208.09375 L 37.441406 202.59375 L 25.496094 214.546875 L 76.777344 237.5 C 89.675781 243.320312 101.625 251.464844 111.667969 261.511719 L 111.773438 261.617188 C 121.820312 271.667969 129.75 283.304688 135.671875 296.105469 L 159.25 348.253906 L 171.199219 336.300781 L 165.699219 256.753906 L 154.175781 267.648438 C 151.636719 270.082031 147.621094 269.976562 145.292969 267.226562 C 142.859375 264.6875 142.96875 260.667969 145.503906 258.339844 L 333.1875 82.425781 C 341.644531 73.960938 344.078125 61.054688 339.53125 50.054688 C 334.984375 39.054688 324.09375 31.753906 312.144531 31.753906 Z M 312.144531 31.753906 " fill-opacity="1" fill-rule="nonzero"/></g><path fill="#000000" d="M 68.105469 95.117188 L 188.960938 131.191406 L 240.5625 75.867188 L 94.644531 68.460938 Z M 68.105469 95.117188 " fill-opacity="1" fill-rule="nonzero"/></svg>